<svg width="355" height="253" version="1.1" xmlns="http://www.w3.org/2000/svg" desc="Created with imagetracer.js version 1.2.6" ><path fill="rgb(0,0,0)" stroke="rgb(0,0,0)" stroke-width="1" opacity="0" d="M 0 0 L 195 0.5 L 147.5 35 L 139.5 39 L 124.5 28 L 62 72.5 L 62 163.5 L 63.5 165 L 112.5 165 L 114 163.5 L 114 123.5 L 112.5 122 L 84.5 122 L 83 123.5 L 83 150.5 L 83.5 151 L 91 151 L 91 130 L 104.5 130 L 106 131.5 L 106 155.5 L 104.5 157 L 82.5 157 L 80.5 157 L 70.5 157 L 70 156.5 L 70 76.5 L 123.5 38 L 125.5 38 L 133 43 L 130.5 47 L 121 53.5 L 121 163.5 L 122.5 165 L 185.5 165 L 187 163.5 L 187 72.5 L 185.5 71 L 148 44.5 L 189.5 14 L 197.5 10 L 264 57.5 L 264 77.5 L 262.5 78 L 249.5 69 L 206 100.5 L 206 163.5 L 207.5 165 L 272 165 L 272 95.5 L 273.5 95 L 286 104.5 L 286 163.5 L 287.5 165 Q 292.8 166.3 294 163.5 L 294 100.5 L 291.5 98 L 272 85 L 272 53.5 L 269.5 51 L 198 0.5 L 355 0 L 355 208.5 L 354.5 209 L 343.5 209 L 338.5 215 Q 339.1 210.4 336.5 209 L 325 209 L 325 231 L 336.5 231 L 338 229.5 L 338.5 225 L 343.5 231 L 355 231 L 355 253 L 287.5 253 Q 286.5 253 287 248.5 L 291.5 243 L 285.5 246 Q 284.7 242.2 279.5 243 L 284 248.5 Q 286.3 255.7 278.5 253 L 279 251.5 Q 281.3 244.3 273.5 247 L 273.5 248 Q 278.1 246.8 276 252 Q 270.6 253.5 269 250.5 Q 267.8 245.3 270.5 244 L 278 243.5 L 267 243 L 267 252.5 L 264.5 253 L 265 251.5 Q 266.8 244.8 263.5 243 L 253 243 L 253 252.5 L 251.5 252 L 243 252 L 243 243 L 240 243 L 240 252.5 L 238.5 253 L 239 251.5 Q 240.8 244.8 237.5 243 L 227 243 L 227 252.5 L 225 253 L 225 243.5 L 222 243 L 221.5 249 L 215.5 243 L 213 243 L 213 252.5 L 211 253 L 211 243.5 L 209 243 L 207.5 247 L 202 247 Q 203.9 241.4 199 243 L 198.5 253 L 197.5 252 L 189 252 L 189 245.5 L 190.5 244 Q 195.3 242.8 196.5 245 L 197.5 243 L 187.5 243 L 186 244.5 Q 184.3 250.8 187 252.5 L 185.5 253 L 184.5 252 L 176 252 L 176 248 L 183.5 248 L 183.5 247 L 176 247 L 176 244 L 185 243.5 L 173 243 L 173 253 L 167 253 L 167 244 L 171.5 244 L 171.5 243 L 159 243.5 L 164 244 L 164 253 L 151.5 253 L 152 251.5 Q 154.3 244.8 147.5 247 L 147.5 248 L 149 248 L 149 252 L 143 252 L 143 244 L 151 243.5 L 140 243 L 140 252.5 L 138 253 L 138 243.5 L 135 243 L 134.5 249 L 128.5 243 L 126 243 L 126 252.5 L 124 253 L 124 243.5 L 122 243 L 122 253 L 118.5 253 L 119 251.5 L 120 246.5 L 117.5 243 L 108 243 L 108 252.5 L 106.5 252 L 98 252 L 98 243 L 95 243 L 94.5 253 L 94 243 L 91 243 L 91 252.5 L 89 253 L 89 243.5 L 86.5 243 L 86 245.5 L 87 248.5 L 86 252 L 80 252 L 80 243 L 77 243 L 77 251.5 L 78 252.5 L 75.5 253 L 76 251.5 L 75 243 L 64 243 L 64 252.5 L 63.5 253 L 0 253 L 0.5 209 L 1.5 210 L 12 210 L 12 231 L 29 231 L 29 210 L 41 210 L 41 231 L 54 231 L 54 224 L 58 224 L 58 231 L 71 231 L 71 209 L 58 209 Q 59.8 215.1 56.5 217 L 54 215.5 L 54 209 L 41 209 L 41 201.5 L 40.5 201 L 0.5 201 L 0 200.5 L 0 0 Z M 197 201 L 197 209 L 177 209 L 173 214 L 173 227 L 177 231 L 232 231 L 236 229 L 237 227 Q 239 217 233 216 L 235 215 L 237 211 L 236 204 L 233 201 L 197 201 Z M 73 209 L 73 231 L 100 231 L 100 224 L 87 224 L 87 223 L 100 223 L 100 217 L 86 217 L 100 216 L 100 210 L 100 209 L 73 209 Z M 102 209 L 102 231 L 115 231 L 116 227 L 120 231 L 132 231 L 128 225 L 130 224 L 132 220 L 131 213 L 128 209 L 102 209 Z M 134 209 L 134 231 L 146 231 L 146 230 Q 148 227 149 230 Q 148 232 155 231 L 157 228 L 158 228 L 159 231 L 171 231 L 171 209 L 158 209 L 153 216 L 148 211 L 148 209 L 134 209 Z M 239 209 L 239 231 L 262 231 L 262 224 L 252 224 L 252 209 L 239 209 Z M 269 209 L 264 215 Q 262 225 266 230 L 269 231 L 290 231 L 293 228 L 293 214 L 292 212 L 290 209 L 269 209 Z M 300 209 L 296 213 L 296 228 L 300 231 L 323 231 Q 324 231 323 226 L 322 224 L 308 224 L 308 216 L 323 216 L 323 210 L 323 209 L 300 209 Z " /><path fill="rgb(0,0,0)" stroke="rgb(0,0,0)" stroke-width="1" opacity="0" d="M 140.5 49 L 179 76.5 L 179 157 L 129 157 L 129 57.5 L 130.5 56 L 140.5 49 Z " /><path fill="rgb(0,0,0)" stroke="rgb(0,0,0)" stroke-width="1" opacity="0" d="M 249.5 79 L 265 88 L 265 157 L 214 157 L 214 104.5 L 215.5 103 L 249.5 79 Z " /><path fill="rgb(0,0,0)" stroke="rgb(0,0,0)" stroke-width="1" opacity="0" d="M 209 209 L 222.5 209 L 223 213 L 209.5 213 L 209 209 Z " /><path fill="rgb(0,0,0)" stroke="rgb(0,0,0)" stroke-width="1" opacity="0" d="M 354.5 211 L 355 228.5 L 352 226.5 L 348 221.5 L 348 219.5 L 354.5 211 Z " /><path fill="rgb(0,0,0)" stroke="rgb(0,0,0)" stroke-width="1" opacity="0" d="M 115 216 Q 120.2 214.3 119 218 Q 113.8 219.7 115 216 Z " /><path fill="rgb(0,0,0)" stroke="rgb(0,0,0)" stroke-width="1" opacity="0" d="M 186 216 Q 189.7 214.5 189 217.5 L 189 219.5 L 190 221.5 L 189 224 L 186 224 L 186 216 Z " /><path fill="rgb(0,0,0)" stroke="rgb(0,0,0)" stroke-width="1" opacity="0" d="M 277 216 L 281 216 L 281 224 L 277 224 L 277 216 Z " /><path fill="rgb(0,0,0)" stroke="rgb(0,0,0)" stroke-width="1" opacity="0" d="M 209 219 L 222.5 219 L 223 222 L 209.5 222 L 209 219 Z " /><path fill="rgb(0,0,0)" stroke="rgb(0,0,0)" stroke-width="1" opacity="0" d="M 66 244 L 73 244 L 73 247 L 66 247 L 66 244 Z " /><path fill="rgb(0,0,0)" stroke="rgb(0,0,0)" stroke-width="1" opacity="0" d="M 111 244 L 117 246.5 Q 118.9 251.9 115.5 251 L 111 252 L 111 244 Z " /><path fill="rgb(0,0,0)" stroke="rgb(0,0,0)" stroke-width="1" opacity="0" d="M 230 244 Q 234.6 242.8 236 245.5 L 236 252 L 230 252 L 230 244 Z " /><path fill="rgb(0,0,0)" stroke="rgb(0,0,0)" stroke-width="1" opacity="0" d="M 256 244 Q 260.6 242.8 262 245.5 L 262 252 L 256 252 L 256 244 Z " /><path fill="rgb(0,0,0)" stroke="rgb(0,0,0)" stroke-width="1" opacity="0" d="M 129.5 247 L 134 253 L 129 253 L 129.5 247 Z " /><path fill="rgb(0,0,0)" stroke="rgb(0,0,0)" stroke-width="1" opacity="0" d="M 216.5 247 L 221.5 253 L 216 253 L 216.5 247 Z " /><path fill="rgb(0,0,0)" stroke="rgb(0,0,0)" stroke-width="1" opacity="0" d="M 66 248 L 73 248 L 73 252 L 66 252 L 66 248 Z " /><path fill="rgb(0,0,0)" stroke="rgb(0,0,0)" stroke-width="1" opacity="0" d="M 202 248 Q 207.4 246.5 209 249.5 L 209 253 L 202 253 L 202 248 Z " /><path fill="rgb(192,21,36)" stroke="rgb(192,21,36)" stroke-width="1" opacity="1" d="M 1 201 L 39.5 201 L 40 201.5 L 40 209 L 29 209 L 29 229.5 L 27.5 231 L 13.5 231 L 12 229.5 L 12 209 L 1 209 L 1 201 Z " /><path fill="rgb(192,21,36)" stroke="rgb(192,21,36)" stroke-width="1" opacity="1" d="M 197.5 209 L 201 211 L 202 217 L 206 219.5 L 204.5 223 Q 200.3 221.7 202 226.5 L 199.5 230 L 197.5 231 L 177.5 231 L 174 227.5 L 174 212.5 L 176.5 210 L 196.5 210 L 197.5 209 Z M 187 215 L 185 217 L 185 225 L 190 225 L 190 215 L 187 215 Z " /><path fill="rgb(192,21,36)" stroke="rgb(192,21,36)" stroke-width="1" opacity="1" d="M 42 210 L 54 210 L 54 217 L 59 217 L 59 210 L 70 210 L 70 231 L 59 231 L 59 223 L 54 223 Q 55.7 229.1 52.5 231 L 42 231 L 42 210 Z " /><path fill="rgb(192,21,36)" stroke="rgb(192,21,36)" stroke-width="1" opacity="1" d="M 73 210 L 99.5 210 L 100 215 L 86.5 215 L 85 216.5 L 98.5 217 L 100 218.5 L 100 223 L 85.5 223 L 85 225 L 99.5 225 Q 100.5 225 100 229.5 L 98.5 231 L 74.5 231 L 73 229.5 L 73 210 Z " /><path fill="rgb(192,21,36)" stroke="rgb(192,21,36)" stroke-width="1" opacity="1" d="M 103 210 L 127.5 210 L 131 213.5 Q 132.3 222.3 128 225.5 L 131 231 L 119.5 231 L 119 229.5 L 115 226.5 L 114 231 L 103 231 L 103 210 Z M 115 215 Q 113 220 119 218 Q 121 213 115 215 Z " /><path fill="rgb(192,21,36)" stroke="rgb(192,21,36)" stroke-width="1" opacity="1" d="M 134 210 L 147.5 210 L 148 211.5 L 152.5 217 L 157.5 210 L 170 210 L 170 231 L 159 231 L 159 225.5 L 156 227.5 L 153.5 231 Q 149.8 231.8 149 229.5 L 146.5 225 L 146 231 L 134 231 L 134 210 Z " /><path fill="rgb(136,136,136)" stroke="rgb(136,136,136)" stroke-width="1" opacity="1" d="M 198.5 1 L 199.5 3 L 198.5 1 Z " /><path fill="rgb(136,136,136)" stroke="rgb(136,136,136)" stroke-width="1" opacity="1" d="M 193.5 2 L 192.5 4 L 193.5 2 Z " /><path fill="rgb(136,136,136)" stroke="rgb(136,136,136)" stroke-width="1" opacity="1" d="M 201.5 3 L 202.5 5 L 201.5 3 Z " /><path fill="rgb(136,136,136)" stroke="rgb(136,136,136)" stroke-width="1" opacity="1" d="M 205.5 6 L 206.5 8 L 205.5 6 Z " /><path fill="rgb(136,136,136)" stroke="rgb(136,136,136)" stroke-width="1" opacity="1" d="M 186.5 7 L 185.5 9 L 186.5 7 Z " /><path fill="rgb(136,136,136)" stroke="rgb(136,136,136)" stroke-width="1" opacity="1" d="M 208.5 8 L 209.5 10 L 208.5 8 Z " /><path fill="rgb(136,136,136)" stroke="rgb(136,136,136)" stroke-width="1" opacity="1" d="M 183.5 9 L 183 10.5 L 182.5 12 L 182 10.5 L 183.5 9 Z " /><path fill="rgb(136,136,136)" stroke="rgb(136,136,136)" stroke-width="1" opacity="1" d="M 192.5 11 L 191.5 13 L 192.5 11 Z " /><path fill="rgb(136,136,136)" stroke="rgb(136,136,136)" stroke-width="1" opacity="1" d="M 179.5 12 L 178.5 14 L 179.5 12 Z " /><path fill="rgb(136,136,136)" stroke="rgb(136,136,136)" stroke-width="1" opacity="1" d="M 202.5 12 L 203.5 14 L 202.5 12 Z " /><path fill="rgb(136,136,136)" stroke="rgb(136,136,136)" stroke-width="1" opacity="1" d="M 189.5 13 L 188.5 15 L 189.5 13 Z " /><path fill="rgb(136,136,136)" stroke="rgb(136,136,136)" stroke-width="1" opacity="1" d="M 215.5 13 L 217 15.5 L 216 15.5 L 215.5 13 Z " /><path fill="rgb(136,136,136)" stroke="rgb(136,136,136)" stroke-width="1" opacity="1" d="M 176.5 14 L 175.5 16 L 176.5 14 Z " /><path fill="rgb(136,136,136)" stroke="rgb(136,136,136)" stroke-width="1" opacity="1" d="M 172.5 17 L 173.5 19 L 172.5 17 Z " /><path fill="rgb(136,136,136)" stroke="rgb(136,136,136)" stroke-width="1" opacity="1" d="M 209.5 17 L 210.5 19 L 209.5 17 Z " /><path fill="rgb(136,136,136)" stroke="rgb(136,136,136)" stroke-width="1" opacity="1" d="M 182.5 18 L 181.5 20 L 182.5 18 Z " /><path fill="rgb(136,136,136)" stroke="rgb(136,136,136)" stroke-width="1" opacity="1" d="M 222.5 18 L 223.5 20 L 222.5 18 Z " /><path fill="rgb(136,136,136)" stroke="rgb(136,136,136)" stroke-width="1" opacity="1" d="M 169.5 19 L 171 21.5 L 169.5 21 L 167.5 22 L 169.5 19 Z " /><path fill="rgb(136,136,136)" stroke="rgb(136,136,136)" stroke-width="1" opacity="1" d="M 216.5 22 L 217.5 24 L 216.5 22 Z " /><path fill="rgb(136,136,136)" stroke="rgb(136,136,136)" stroke-width="1" opacity="1" d="M 175.5 23 L 174.5 25 L 175.5 23 Z " /><path fill="rgb(136,136,136)" stroke="rgb(136,136,136)" stroke-width="1" opacity="1" d="M 162.5 24 L 161.5 26 L 162.5 24 Z " /><path fill="rgb(136,136,136)" stroke="rgb(136,136,136)" stroke-width="1" opacity="1" d="M 219.5 24 L 220.5 26 L 219.5 24 Z " /><path fill="rgb(136,136,136)" stroke="rgb(136,136,136)" stroke-width="1" opacity="1" d="M 172.5 25 L 171.5 27 L 172.5 25 Z " /><path fill="rgb(136,136,136)" stroke="rgb(136,136,136)" stroke-width="1" opacity="1" d="M 232.5 25 L 233.5 27 L 232.5 25 Z " /><path fill="rgb(136,136,136)" stroke="rgb(136,136,136)" stroke-width="1" opacity="1" d="M 223.5 27 Q 225.8 26.3 225 28.5 L 223.5 27 Z " /><path fill="rgb(136,136,136)" stroke="rgb(136,136,136)" stroke-width="1" opacity="1" d="M 168.5 28 L 167.5 30 L 168.5 28 Z " /><path fill="rgb(136,136,136)" stroke="rgb(136,136,136)" stroke-width="1" opacity="1" d="M 155.5 29 L 157 29.5 L 154.5 31 L 155.5 29 Z " /><path fill="rgb(136,136,136)" stroke="rgb(136,136,136)" stroke-width="1" opacity="1" d="M 226.5 29 L 227.5 31 L 226.5 29 Z " /><path fill="rgb(136,136,136)" stroke="rgb(136,136,136)" stroke-width="1" opacity="1" d="M 165.5 30 L 164.5 32 L 165.5 30 Z " /><path fill="rgb(136,136,136)" stroke="rgb(136,136,136)" stroke-width="1" opacity="1" d="M 239.5 30 L 240.5 32 L 239.5 30 Z " /><path fill="rgb(136,136,136)" stroke="rgb(136,136,136)" stroke-width="1" opacity="1" d="M 120.5 31 L 119.5 33 L 120.5 31 Z " /><path fill="rgb(136,136,136)" stroke="rgb(136,136,136)" stroke-width="1" opacity="1" d="M 128.5 31 L 129.5 33 L 128.5 31 Z " /><path fill="rgb(136,136,136)" stroke="rgb(136,136,136)" stroke-width="1" opacity="1" d="M 152.5 31 L 152 32.5 L 151.5 34 L 151 32.5 L 152.5 31 Z " /><path fill="rgb(136,136,136)" stroke="rgb(136,136,136)" stroke-width="1" opacity="1" d="M 131.5 33 Q 134.5 34.5 131.5 36 L 131.5 33 Z " /><path fill="rgb(136,136,136)" stroke="rgb(136,136,136)" stroke-width="1" opacity="1" d="M 161.5 33 L 160.5 35 L 161.5 33 Z " /><path fill="rgb(136,136,136)" stroke="rgb(136,136,136)" stroke-width="1" opacity="1" d="M 148.5 34 L 147.5 36 L 148.5 34 Z " /><path fill="rgb(136,136,136)" stroke="rgb(136,136,136)" stroke-width="1" opacity="1" d="M 233.5 34 L 234.5 36 L 233.5 34 Z " /><path fill="rgb(136,136,136)" stroke="rgb(136,136,136)" stroke-width="1" opacity="1" d="M 158.5 35 L 157.5 37 L 158.5 35 Z " /><path fill="rgb(136,136,136)" stroke="rgb(136,136,136)" stroke-width="1" opacity="1" d="M 246.5 35 L 247.5 37 L 246.5 35 Z " /><path fill="rgb(136,136,136)" stroke="rgb(136,136,136)" stroke-width="1" opacity="1" d="M 113.5 36 L 112.5 38 L 113.5 36 Z " /><path fill="rgb(136,136,136)" stroke="rgb(136,136,136)" stroke-width="1" opacity="1" d="M 126.5 36 L 126.5 39 Q 123.5 37.5 126.5 36 Z " /><path fill="rgb(136,136,136)" stroke="rgb(136,136,136)" stroke-width="1" opacity="1" d="M 145.5 36 L 144.5 38 L 145.5 36 Z " /><path fill="rgb(136,136,136)" stroke="rgb(136,136,136)" stroke-width="1" opacity="1" d="M 110.5 38 L 109.5 40 L 110.5 38 Z " /><path fill="rgb(136,136,136)" stroke="rgb(136,136,136)" stroke-width="1" opacity="1" d="M 138.5 38 L 139.5 40 L 138.5 38 Z " /><path fill="rgb(136,136,136)" stroke="rgb(136,136,136)" stroke-width="1" opacity="1" d="M 240.5 39 L 241.5 41 L 240.5 39 Z " /><path fill="rgb(136,136,136)" stroke="rgb(136,136,136)" stroke-width="1" opacity="1" d="M 119.5 40 L 118.5 42 L 119.5 40 Z " /><path fill="rgb(136,136,136)" stroke="rgb(136,136,136)" stroke-width="1" opacity="1" d="M 151.5 40 L 150.5 42 L 151.5 40 Z " /><path fill="rgb(136,136,136)" stroke="rgb(136,136,136)" stroke-width="1" opacity="1" d="M 253.5 40 Q 256.5 41.5 253.5 43 L 253.5 40 Z " /><path fill="rgb(136,136,136)" stroke="rgb(136,136,136)" stroke-width="1" opacity="1" d="M 106.5 41 L 105.5 43 L 106.5 41 Z " /><path fill="rgb(136,136,136)" stroke="rgb(136,136,136)" stroke-width="1" opacity="1" d="M 131.5 41 L 134.5 45 L 131.5 41 Z " /><path fill="rgb(136,136,136)" stroke="rgb(136,136,136)" stroke-width="1" opacity="1" d="M 116.5 42 L 115.5 44 L 116.5 42 Z " /><path fill="rgb(136,136,136)" stroke="rgb(136,136,136)" stroke-width="1" opacity="1" d="M 103.5 43 L 102.5 45 L 103.5 43 Z " /><path fill="rgb(136,136,136)" stroke="rgb(136,136,136)" stroke-width="1" opacity="1" d="M 110.5 43 L 111 45 L 109 44.5 L 110.5 43 Z " /><path fill="rgb(136,136,136)" stroke="rgb(136,136,136)" stroke-width="1" opacity="1" d="M 247.5 44 L 250 44.5 Q 247.9 47.8 247.5 44 Z " /><path fill="rgb(136,136,136)" stroke="rgb(136,136,136)" stroke-width="1" opacity="1" d="M 112.5 45 L 111.5 47 L 112.5 45 Z " /><path fill="rgb(136,136,136)" stroke="rgb(136,136,136)" stroke-width="1" opacity="1" d="M 260.5 45 L 261.5 47 L 260.5 45 Z " /><path fill="rgb(136,136,136)" stroke="rgb(136,136,136)" stroke-width="1" opacity="1" d="M 131.5 46 L 130.5 48 L 131.5 46 Z " /><path fill="rgb(136,136,136)" stroke="rgb(136,136,136)" stroke-width="1" opacity="1" d="M 250.5 46 L 253 46.5 Q 250.9 49.8 250.5 46 Z " /><path fill="rgb(136,136,136)" stroke="rgb(136,136,136)" stroke-width="1" opacity="1" d="M 109.5 47 L 108.5 49 L 109.5 47 Z " /><path fill="rgb(136,136,136)" stroke="rgb(136,136,136)" stroke-width="1" opacity="1" d="M 263.5 47 L 264.5 49 L 263.5 47 Z " /><path fill="rgb(136,136,136)" stroke="rgb(136,136,136)" stroke-width="1" opacity="1" d="M 96.5 48 L 97 50.5 L 94.5 53 L 96.5 48 Z " /><path fill="rgb(136,136,136)" stroke="rgb(136,136,136)" stroke-width="1" opacity="1" d="M 152.5 48 L 153.5 50 L 152.5 48 Z " /><path fill="rgb(136,136,136)" stroke="rgb(136,136,136)" stroke-width="1" opacity="1" d="M 142.5 49 L 143.5 51 L 142.5 49 Z " /><path fill="rgb(136,136,136)" stroke="rgb(136,136,136)" stroke-width="1" opacity="1" d="M 254.5 49 L 255.5 51 L 254.5 49 Z " /><path fill="rgb(136,136,136)" stroke="rgb(136,136,136)" stroke-width="1" opacity="1" d="M 137.5 50 L 136.5 52 L 137.5 50 Z " /><path fill="rgb(136,136,136)" stroke="rgb(136,136,136)" stroke-width="1" opacity="1" d="M 155.5 50 L 156.5 52 L 155.5 50 Z " /><path fill="rgb(136,136,136)" stroke="rgb(136,136,136)" stroke-width="1" opacity="1" d="M 267.5 50 L 268.5 52 L 267.5 50 Z " /><path fill="rgb(136,136,136)" stroke="rgb(136,136,136)" stroke-width="1" opacity="1" d="M 124.5 51 L 123.5 53 L 124.5 51 Z " /><path fill="rgb(136,136,136)" stroke="rgb(136,136,136)" stroke-width="1" opacity="1" d="M 151.5 51 L 152.5 53 L 151.5 51 Z " /><path fill="rgb(136,136,136)" stroke="rgb(136,136,136)" stroke-width="1" opacity="1" d="M 257.5 51 L 258.5 53 L 257.5 51 Z " /><path fill="rgb(136,136,136)" stroke="rgb(136,136,136)" stroke-width="1" opacity="1" d="M 102.5 52 L 101.5 54 L 102.5 52 Z " /><path fill="rgb(136,136,136)" stroke="rgb(136,136,136)" stroke-width="1" opacity="1" d="M 134.5 52 L 133.5 54 L 134.5 52 Z " /><path fill="rgb(136,136,136)" stroke="rgb(136,136,136)" stroke-width="1" opacity="1" d="M 146.5 52 L 147.5 54 L 146.5 52 Z " /><path fill="rgb(136,136,136)" stroke="rgb(136,136,136)" stroke-width="1" opacity="1" d="M 270.5 52 L 271.5 54 L 270.5 52 Z " /><path fill="rgb(136,136,136)" stroke="rgb(136,136,136)" stroke-width="1" opacity="1" d="M 89.5 53 L 88.5 55 L 89.5 53 Z " /><path fill="rgb(136,136,136)" stroke="rgb(136,136,136)" stroke-width="1" opacity="1" d="M 159.5 53 L 160.5 55 L 159.5 53 Z " /><path fill="rgb(136,136,136)" stroke="rgb(136,136,136)" stroke-width="1" opacity="1" d="M 149.5 54 L 150.5 56 L 149.5 54 Z " /><path fill="rgb(136,136,136)" stroke="rgb(136,136,136)" stroke-width="1" opacity="1" d="M 130.5 55 L 129 57.5 L 128.5 157 L 128 57.5 L 130.5 55 Z " /><path fill="rgb(136,136,136)" stroke="rgb(136,136,136)" stroke-width="1" opacity="1" d="M 162.5 55 L 164 57.5 L 162 56.5 L 162.5 55 Z " /><path fill="rgb(136,136,136)" stroke="rgb(136,136,136)" stroke-width="1" opacity="1" d="M 85.5 56 L 84.5 58 L 85.5 56 Z " /><path fill="rgb(136,136,136)" stroke="rgb(136,136,136)" stroke-width="1" opacity="1" d="M 95.5 57 L 94.5 59 L 95.5 57 Z " /><path fill="rgb(136,136,136)" stroke="rgb(136,136,136)" stroke-width="1" opacity="1" d="M 82.5 58 L 81.5 60 L 82.5 58 Z " /><path fill="rgb(136,136,136)" stroke="rgb(136,136,136)" stroke-width="1" opacity="1" d="M 156.5 59 L 157.5 61 L 156.5 59 Z " /><path fill="rgb(136,136,136)" stroke="rgb(136,136,136)" stroke-width="1" opacity="1" d="M 169.5 60 L 170.5 62 L 169.5 60 Z " /><path fill="rgb(136,136,136)" stroke="rgb(136,136,136)" stroke-width="1" opacity="1" d="M 161.5 61 L 160.5 63 L 161.5 61 Z " /><path fill="rgb(136,136,136)" stroke="rgb(136,136,136)" stroke-width="1" opacity="1" d="M 88.5 62 L 87.5 64 L 88.5 62 Z " /><path fill="rgb(136,136,136)" stroke="rgb(136,136,136)" stroke-width="1" opacity="1" d="M 75.5 63 L 74.5 65 L 75.5 63 Z " /><path fill="rgb(136,136,136)" stroke="rgb(136,136,136)" stroke-width="1" opacity="1" d="M 85.5 64 L 84.5 66 L 85.5 64 Z " /><path fill="rgb(136,136,136)" stroke="rgb(136,136,136)" stroke-width="1" opacity="1" d="M 163.5 64 L 164.5 66 L 163.5 64 Z " /><path fill="rgb(136,136,136)" stroke="rgb(136,136,136)" stroke-width="1" opacity="1" d="M 72.5 65 L 73 67 L 71 66.5 L 72.5 65 Z " /><path fill="rgb(136,136,136)" stroke="rgb(136,136,136)" stroke-width="1" opacity="1" d="M 176.5 65 L 177.5 67 L 176.5 65 Z " /><path fill="rgb(136,136,136)" stroke="rgb(136,136,136)" stroke-width="1" opacity="1" d="M 81.5 67 L 80.5 69 L 81.5 67 Z " /><path fill="rgb(136,136,136)" stroke="rgb(136,136,136)" stroke-width="1" opacity="1" d="M 78.5 69 L 77.5 71 L 78.5 69 Z " /><path fill="rgb(136,136,136)" stroke="rgb(136,136,136)" stroke-width="1" opacity="1" d="M 170.5 69 L 171.5 71 L 170.5 69 Z " /><path fill="rgb(136,136,136)" stroke="rgb(136,136,136)" stroke-width="1" opacity="1" d="M 65.5 70 L 64.5 72 L 65.5 70 Z " /><path fill="rgb(136,136,136)" stroke="rgb(136,136,136)" stroke-width="1" opacity="1" d="M 183.5 70 Q 186.5 71.5 183.5 73 L 183.5 70 Z " /><path fill="rgb(136,136,136)" stroke="rgb(136,136,136)" stroke-width="1" opacity="1" d="M 251.5 70 L 252.5 72 Q 249.7 72.7 251.5 70 Z " /><path fill="rgb(136,136,136)" stroke="rgb(136,136,136)" stroke-width="1" opacity="1" d="M 173.5 71 L 174.5 73 L 173.5 71 Z " /><path fill="rgb(136,136,136)" stroke="rgb(136,136,136)" stroke-width="1" opacity="1" d="M 247.5 71 L 246.5 73 L 247.5 71 Z " /><path fill="rgb(136,136,136)" stroke="rgb(136,136,136)" stroke-width="1" opacity="1" d="M 254.5 72 L 255.5 74 L 254.5 72 Z " /><path fill="rgb(136,136,136)" stroke="rgb(136,136,136)" stroke-width="1" opacity="1" d="M 267.5 72 L 266.5 74 L 267.5 72 Z " /><path fill="rgb(136,136,136)" stroke="rgb(136,136,136)" stroke-width="1" opacity="1" d="M 186.5 73 L 187 163.5 L 186 163.5 L 186.5 73 Z " /><path fill="rgb(136,136,136)" stroke="rgb(136,136,136)" stroke-width="1" opacity="1" d="M 244.5 73 L 243.5 75 L 244.5 73 Z " /><path fill="rgb(136,136,136)" stroke="rgb(136,136,136)" stroke-width="1" opacity="1" d="M 71.5 74 L 70 76.5 L 69.5 157 L 69 76.5 L 71.5 74 Z " /><path fill="rgb(136,136,136)" stroke="rgb(136,136,136)" stroke-width="1" opacity="1" d="M 177.5 74 L 178.5 76 L 177.5 74 Z " /><path fill="rgb(136,136,136)" stroke="rgb(136,136,136)" stroke-width="1" opacity="1" d="M 258.5 75 L 263 78.5 L 261 79.5 L 261.5 78 L 259.5 79 L 258.5 75 Z " /><path fill="rgb(136,136,136)" stroke="rgb(136,136,136)" stroke-width="1" opacity="1" d="M 240.5 76 L 241.5 78 L 239 77.5 L 240.5 76 Z " /><path fill="rgb(136,136,136)" stroke="rgb(136,136,136)" stroke-width="1" opacity="1" d="M 237.5 78 L 236.5 80 L 237.5 78 Z " /><path fill="rgb(136,136,136)" stroke="rgb(136,136,136)" stroke-width="1" opacity="1" d="M 255.5 80 L 257 82.5 L 255 81.5 L 255.5 80 Z " /><path fill="rgb(136,136,136)" stroke="rgb(136,136,136)" stroke-width="1" opacity="1" d="M 243.5 82 L 242.5 84 L 243.5 82 Z " /><path fill="rgb(136,136,136)" stroke="rgb(136,136,136)" stroke-width="1" opacity="1" d="M 230.5 83 L 230.5 86 Q 227.5 84.5 230.5 83 Z " /><path fill="rgb(136,136,136)" stroke="rgb(136,136,136)" stroke-width="1" opacity="1" d="M 262.5 86 L 263.5 88 L 262.5 86 Z " /><path fill="rgb(136,136,136)" stroke="rgb(136,136,136)" stroke-width="1" opacity="1" d="M 231.5 87 L 232.5 89 L 230 88.5 L 231.5 87 Z " /><path fill="rgb(136,136,136)" stroke="rgb(136,136,136)" stroke-width="1" opacity="1" d="M 236.5 87 L 235.5 89 L 236.5 87 Z " /><path fill="rgb(136,136,136)" stroke="rgb(136,136,136)" stroke-width="1" opacity="1" d="M 275.5 87 L 276.5 89 L 275.5 87 Z " /><path fill="rgb(136,136,136)" stroke="rgb(136,136,136)" stroke-width="1" opacity="1" d="M 223.5 88 L 222.5 90 L 223.5 88 Z " /><path fill="rgb(136,136,136)" stroke="rgb(136,136,136)" stroke-width="1" opacity="1" d="M 220.5 90 L 219.5 92 L 220.5 90 Z " /><path fill="rgb(136,136,136)" stroke="rgb(136,136,136)" stroke-width="1" opacity="1" d="M 229.5 91 L 230 92.5 L 228 93.5 L 229.5 91 Z " /><path fill="rgb(136,136,136)" stroke="rgb(136,136,136)" stroke-width="1" opacity="1" d="M 282.5 92 L 283.5 94 L 282.5 92 Z " /><path fill="rgb(136,136,136)" stroke="rgb(136,136,136)" stroke-width="1" opacity="1" d="M 216.5 93 L 216 94.5 L 215.5 96 L 215 94.5 L 216.5 93 Z " /><path fill="rgb(136,136,136)" stroke="rgb(136,136,136)" stroke-width="1" opacity="1" d="M 285.5 94 L 286.5 96 L 285.5 94 Z " /><path fill="rgb(136,136,136)" stroke="rgb(136,136,136)" stroke-width="1" opacity="1" d="M 213.5 95 L 212.5 97 L 213.5 95 Z " /><path fill="rgb(136,136,136)" stroke="rgb(136,136,136)" stroke-width="1" opacity="1" d="M 276.5 96 L 277.5 98 L 276.5 96 Z " /><path fill="rgb(136,136,136)" stroke="rgb(136,136,136)" stroke-width="1" opacity="1" d="M 222.5 97 L 221.5 99 L 222.5 97 Z " /><path fill="rgb(136,136,136)" stroke="rgb(136,136,136)" stroke-width="1" opacity="1" d="M 289.5 97 L 290.5 99 L 289.5 97 Z " /><path fill="rgb(136,136,136)" stroke="rgb(136,136,136)" stroke-width="1" opacity="1" d="M 209.5 98 L 208.5 100 L 209.5 98 Z " /><path fill="rgb(136,136,136)" stroke="rgb(136,136,136)" stroke-width="1" opacity="1" d="M 281.5 98 L 280.5 100 L 281.5 98 Z " /><path fill="rgb(136,136,136)" stroke="rgb(136,136,136)" stroke-width="1" opacity="1" d="M 219.5 99 L 218.5 101 L 219.5 99 Z " /><path fill="rgb(136,136,136)" stroke="rgb(136,136,136)" stroke-width="1" opacity="1" d="M 286.5 103 L 287 163.5 L 286 163.5 L 286.5 103 Z " /><path fill="rgb(136,136,136)" stroke="rgb(136,136,136)" stroke-width="1" opacity="1" d="M 90.5 130 L 91 150.5 L 90 150.5 L 90.5 130 Z " /><path fill="rgb(136,136,136)" stroke="rgb(136,136,136)" stroke-width="1" opacity="1" d="M 197.5 201 L 229.5 201 L 230 202.5 L 228.5 202 L 197.5 202 L 197.5 201 Z " /><path fill="rgb(136,136,136)" stroke="rgb(136,136,136)" stroke-width="1" opacity="1" d="M 208.5 209 L 209 213.5 L 208 213.5 L 208.5 209 Z " /><path fill="rgb(136,136,136)" stroke="rgb(136,136,136)" stroke-width="1" opacity="1" d="M 223.5 209 L 224 212.5 L 223 212.5 L 223.5 209 Z " /><path fill="rgb(136,136,136)" stroke="rgb(136,136,136)" stroke-width="1" opacity="1" d="M 70.5 210 L 71 229.5 L 70 229.5 L 70.5 210 Z " /><path fill="rgb(136,136,136)" stroke="rgb(136,136,136)" stroke-width="1" opacity="1" d="M 267.5 210 L 266.5 212 L 267.5 210 Z " /><path fill="rgb(136,136,136)" stroke="rgb(136,136,136)" stroke-width="1" opacity="1" d="M 325.5 210 L 326 230 L 337 230.5 L 326.5 231 L 325 229.5 L 325.5 210 Z " /><path fill="rgb(136,136,136)" stroke="rgb(136,136,136)" stroke-width="1" opacity="1" d="M 351.5 211 Q 353.8 210.3 353 212.5 L 351 213.5 L 351.5 211 Z " /><path fill="rgb(136,136,136)" stroke="rgb(136,136,136)" stroke-width="1" opacity="1" d="M 204.5 213 L 205 215.5 L 204 215.5 L 204.5 213 Z " /><path fill="rgb(136,136,136)" stroke="rgb(136,136,136)" stroke-width="1" opacity="1" d="M 340.5 213 L 336.5 218 L 340.5 213 Z " /><path fill="rgb(136,136,136)" stroke="rgb(136,136,136)" stroke-width="1" opacity="1" d="M 231.5 215 L 232.5 217 L 231.5 215 Z " /><path fill="rgb(136,136,136)" stroke="rgb(136,136,136)" stroke-width="1" opacity="1" d="M 281.5 215 L 282 224.5 L 281 224.5 L 281.5 215 Z " /><path fill="rgb(136,136,136)" stroke="rgb(136,136,136)" stroke-width="1" opacity="1" d="M 307.5 215 L 308 224.5 L 307 224.5 L 307.5 215 Z " /><path fill="rgb(136,136,136)" stroke="rgb(136,136,136)" stroke-width="1" opacity="1" d="M 208.5 216 L 209 223.5 L 208 223.5 L 208.5 216 Z " /><path fill="rgb(136,136,136)" stroke="rgb(136,136,136)" stroke-width="1" opacity="1" d="M 349.5 216 L 348.5 218 L 349.5 216 Z " /><path fill="rgb(136,136,136)" stroke="rgb(136,136,136)" stroke-width="1" opacity="1" d="M 234.5 217 L 235.5 219 L 234.5 217 Z " /><path fill="rgb(136,136,136)" stroke="rgb(136,136,136)" stroke-width="1" opacity="1" d="M 223.5 219 L 224 223.5 L 223 223.5 L 223.5 219 Z " /><path fill="rgb(136,136,136)" stroke="rgb(136,136,136)" stroke-width="1" opacity="1" d="M 347.5 221 L 348.5 223 L 347.5 221 Z " /><path fill="rgb(136,136,136)" stroke="rgb(136,136,136)" stroke-width="1" opacity="1" d="M 337.5 223 L 340 223.5 L 339.5 226 L 337.5 223 Z " /><path fill="rgb(136,136,136)" stroke="rgb(136,136,136)" stroke-width="1" opacity="1" d="M 86.5 224 L 99 224.5 L 86.5 225 L 86.5 224 Z " /><path fill="rgb(136,136,136)" stroke="rgb(136,136,136)" stroke-width="1" opacity="1" d="M 204.5 224 L 205 226.5 L 204 226.5 L 204.5 224 Z " /><path fill="rgb(136,136,136)" stroke="rgb(136,136,136)" stroke-width="1" opacity="1" d="M 351.5 226 L 352.5 228 L 351.5 226 Z " /><path fill="rgb(136,136,136)" stroke="rgb(136,136,136)" stroke-width="1" opacity="1" d="M 235.5 227 L 233.5 230 L 235.5 227 Z " /><path fill="rgb(136,136,136)" stroke="rgb(136,136,136)" stroke-width="1" opacity="1" d="M 265.5 227 L 267.5 230 L 265.5 227 Z " /><path fill="rgb(136,136,136)" stroke="rgb(136,136,136)" stroke-width="1" opacity="1" d="M 341.5 228 Q 343 231.5 349.5 230 L 351.5 230 L 355 230.5 L 343.5 231 L 341.5 228 Z " /><path fill="rgb(136,136,136)" stroke="rgb(136,136,136)" stroke-width="1" opacity="1" d="M 253.5 229 L 261 230.5 L 240.5 231 L 240.5 230 L 252.5 230 L 253.5 229 Z " /><path fill="rgb(136,136,136)" stroke="rgb(136,136,136)" stroke-width="1" opacity="1" d="M 285.5 229 L 289 230.5 L 269.5 231 L 269.5 230 L 284.5 230 L 285.5 229 Z " /><path fill="rgb(136,136,136)" stroke="rgb(136,136,136)" stroke-width="1" opacity="1" d="M 301.5 229 L 303.5 230 L 305.5 230 L 309.5 229 L 310.5 230 L 322 230.5 L 300.5 231 L 301.5 229 Z " /><path fill="rgb(136,136,136)" stroke="rgb(136,136,136)" stroke-width="1" opacity="1" d="M 199.5 230 L 229 230.5 L 199.5 231 L 199.5 230 Z " /><path fill="rgb(136,136,136)" stroke="rgb(136,136,136)" stroke-width="1" opacity="1" d="M 79.5 243 L 80 251.5 L 78 252.5 L 79 251.5 L 79.5 243 Z " /><path fill="rgb(136,136,136)" stroke="rgb(136,136,136)" stroke-width="1" opacity="1" d="M 91.5 243 L 92 252.5 L 91 252.5 L 91.5 243 Z " /><path fill="rgb(136,136,136)" stroke="rgb(136,136,136)" stroke-width="1" opacity="1" d="M 108.5 243 L 109 252.5 L 108 252.5 L 108.5 243 Z " /><path fill="rgb(136,136,136)" stroke="rgb(136,136,136)" stroke-width="1" opacity="1" d="M 115.5 243 L 116.5 245 L 115.5 243 Z " /><path fill="rgb(136,136,136)" stroke="rgb(136,136,136)" stroke-width="1" opacity="1" d="M 126.5 243 L 127 252.5 L 126 252.5 L 126.5 243 Z " /><path fill="rgb(136,136,136)" stroke="rgb(136,136,136)" stroke-width="1" opacity="1" d="M 128.5 243 L 133 247.5 L 132.5 249 Q 134.8 248.3 134 250.5 L 136 250.5 L 135.5 253 L 131 248.5 Q 133.8 246.8 129.5 245 L 128 245.5 L 128.5 243 Z " /><path fill="rgb(136,136,136)" stroke="rgb(136,136,136)" stroke-width="1" opacity="1" d="M 137.5 243 L 138 252.5 L 137 252.5 Q 138.5 247 136 245.5 L 137.5 243 Z " /><path fill="rgb(136,136,136)" stroke="rgb(136,136,136)" stroke-width="1" opacity="1" d="M 141.5 243 L 141 244.5 L 140.5 246 L 140 244.5 L 141.5 243 Z " /><path fill="rgb(136,136,136)" stroke="rgb(136,136,136)" stroke-width="1" opacity="1" d="M 188.5 243 L 189 251.5 L 187 252.5 L 188 251.5 L 188.5 243 Z " /><path fill="rgb(136,136,136)" stroke="rgb(136,136,136)" stroke-width="1" opacity="1" d="M 201.5 243 L 202 247 L 200 246.5 L 201.5 243 Z " /><path fill="rgb(136,136,136)" stroke="rgb(136,136,136)" stroke-width="1" opacity="1" d="M 213.5 243 L 214 252.5 L 213 252.5 L 213.5 243 Z " /><path fill="rgb(136,136,136)" stroke="rgb(136,136,136)" stroke-width="1" opacity="1" d="M 215.5 243 L 220 247.5 Q 217.2 249.3 221.5 251 L 224 250.5 L 224.5 243 L 225 252.5 L 222.5 253 L 218 248.5 Q 220.8 246.8 216.5 245 L 215 245.5 L 215.5 243 Z " /><path fill="rgb(136,136,136)" stroke="rgb(136,136,136)" stroke-width="1" opacity="1" d="M 228.5 243 L 227.5 245 L 228.5 243 Z " /><path fill="rgb(136,136,136)" stroke="rgb(136,136,136)" stroke-width="1" opacity="1" d="M 236.5 243 L 237 251.5 L 238 252.5 L 236 251.5 L 236.5 243 Z " /><path fill="rgb(136,136,136)" stroke="rgb(136,136,136)" stroke-width="1" opacity="1" d="M 254.5 243 L 254 244.5 Q 252.2 250.8 255 252.5 L 253 251.5 Q 251.3 244.8 254.5 243 Z " /><path fill="rgb(136,136,136)" stroke="rgb(136,136,136)" stroke-width="1" opacity="1" d="M 263.5 243 L 262.5 245 L 263.5 243 Z " /><path fill="rgb(136,136,136)" stroke="rgb(136,136,136)" stroke-width="1" opacity="1" d="M 289.5 243 L 286.5 247 L 289.5 243 Z " /><path fill="rgb(136,136,136)" stroke="rgb(136,136,136)" stroke-width="1" opacity="1" d="M 166.5 244 L 167 252.5 L 166 252.5 L 166.5 244 Z " /><path fill="rgb(136,136,136)" stroke="rgb(136,136,136)" stroke-width="1" opacity="1" d="M 175.5 244 L 176 246.5 L 175 246.5 L 175.5 244 Z " /><path fill="rgb(136,136,136)" stroke="rgb(136,136,136)" stroke-width="1" opacity="1" d="M 281.5 244 L 287 248 L 286.5 253 L 286 249.5 L 281.5 244 Z " /><path fill="rgb(136,136,136)" stroke="rgb(136,136,136)" stroke-width="1" opacity="1" d="M 117.5 246 L 118.5 248 L 117.5 246 Z " /><path fill="rgb(136,136,136)" stroke="rgb(136,136,136)" stroke-width="1" opacity="1" d="M 149.5 247 L 151 252.5 L 149 251.5 L 149.5 247 Z " /><path fill="rgb(136,136,136)" stroke="rgb(136,136,136)" stroke-width="1" opacity="1" d="M 175.5 248 L 176 252.5 L 175 252.5 L 175.5 248 Z " /><path fill="rgb(136,136,136)" stroke="rgb(136,136,136)" stroke-width="1" opacity="1" d="M 201.5 248 L 202 252.5 L 201 252.5 L 201.5 248 Z " /><path fill="rgb(136,136,136)" stroke="rgb(136,136,136)" stroke-width="1" opacity="1" d="M 276.5 248 L 277 251.5 L 276 251.5 L 276.5 248 Z " /><path fill="rgb(136,136,136)" stroke="rgb(136,136,136)" stroke-width="1" opacity="1" d="M 88.5 251 L 87.5 253 L 88.5 251 Z " /><path fill="rgb(136,136,136)" stroke="rgb(136,136,136)" stroke-width="1" opacity="1" d="M 140.5 251 L 141.5 253 L 140.5 251 Z " /><path fill="rgb(136,136,136)" stroke="rgb(136,136,136)" stroke-width="1" opacity="1" d="M 227.5 251 L 228.5 253 L 227.5 251 Z " /><path fill="rgb(136,136,136)" stroke="rgb(136,136,136)" stroke-width="1" opacity="1" d="M 262.5 251 L 263.5 253 L 262.5 251 Z " /><path fill="rgb(135,135,135)" stroke="rgb(135,135,135)" stroke-width="1" opacity="1" d="M 195.5 1 L 197.5 1 L 216 14.5 L 216.5 16 Q 218 13.5 219.5 17 L 272 54.5 L 272 85.5 L 273.5 86 L 293 100.5 L 293 161.5 L 292 162.5 L 292.5 164 Q 287.1 164.6 287 163.5 L 287 103.5 L 285.5 103 L 272 94 L 272 164 L 207 164 L 207 100.5 L 208.5 100 L 214.5 95 L 216 95.5 L 218.5 92 L 251 70 Q 249.8 73 253.5 72 L 264.5 80 L 265 56 L 225 29 Q 226.3 26 222.5 27 L 202.5 12 L 195.5 9 L 186.5 16 L 184 16 Q 185.1 18.7 182.5 18 L 147 43 L 149.5 47 L 162 55 L 163.5 58 Q 165 55.5 166.5 59 L 186 72 L 186 164 L 122 164 L 122 53.5 L 123.5 53 L 135 44.5 L 124.5 37 L 99.5 55 L 98 54.5 L 96.5 57 L 69 76.5 L 69 157 L 106 157 L 106 130 L 90 130 L 90 150.5 L 89.5 151 L 84 151 L 84 123 L 113 123 L 112 126.5 L 113 127.5 L 113 164 L 63.5 164 L 63 163.5 L 63 152.5 L 63 150.5 L 63 75.5 L 64 74.5 L 63 72 L 70.5 67 L 73 67 Q 71.9 64.3 74.5 65 L 124.5 29 L 139.5 40 L 141.5 40 L 150.5 33 L 152 33.5 L 153.5 31 L 157 30 Q 155.9 27.3 158.5 28 Q 162.9 22.6 170 21 L 171.5 18 L 181.5 11 L 183 11.5 L 184.5 9 L 195.5 1 Z M 111 43 L 109 45 L 111 45 L 111 43 Z M 141 48 L 131 55 L 128 58 L 128 157 L 180 157 L 180 77 L 170 69 L 168 67 L 167 67 L 141 48 Z M 250 78 L 233 90 Q 231 93 230 91 L 229 93 L 216 102 L 214 104 L 214 157 L 265 157 L 265 89 L 259 84 L 256 81 L 255 81 L 250 78 Z " /><path fill="rgb(135,135,135)" stroke="rgb(135,135,135)" stroke-width="1" opacity="1" d="M 197 202 L 228.5 202 L 229.5 203 L 233.5 203 Q 235.8 202.3 235 204.5 Q 237.5 206 236 211.5 L 235 214 L 231 215.5 L 236 219.5 Q 237.8 228.3 232.5 230 L 200 229.5 Q 202.8 227.5 202 223 L 206 221.5 Q 206.5 217.5 203.5 217 Q 200.5 217.9 202 213.5 L 201 211 L 197.5 209 L 196.5 210 L 178.5 210 L 178.5 209 L 197 209 L 197 202 Z M 208 209 L 208 214 L 211 215 L 212 214 L 223 214 L 224 213 L 224 209 L 208 209 Z M 205 213 L 204 216 L 205 216 L 205 213 Z M 209 216 L 208 224 L 210 223 L 223 223 L 224 224 L 224 220 L 223 218 L 209 218 L 209 216 Z M 205 224 L 204 227 L 205 227 L 205 224 Z " /><path fill="rgb(135,135,135)" stroke="rgb(135,135,135)" stroke-width="1" opacity="1" d="M 42.5 209 L 53 209.5 L 42.5 210 L 42.5 209 Z " /><path fill="rgb(135,135,135)" stroke="rgb(135,135,135)" stroke-width="1" opacity="1" d="M 59.5 209 L 70 209.5 L 59 210 L 58.5 217 L 58 210.5 L 59.5 209 Z " /><path fill="rgb(135,135,135)" stroke="rgb(135,135,135)" stroke-width="1" opacity="1" d="M 74.5 209 L 99 209.5 L 74.5 210 L 74.5 209 Z " /><path fill="rgb(135,135,135)" stroke="rgb(135,135,135)" stroke-width="1" opacity="1" d="M 103.5 209 L 127 209.5 L 103.5 210 L 103.5 209 Z " /><path fill="rgb(135,135,135)" stroke="rgb(135,135,135)" stroke-width="1" opacity="1" d="M 134.5 209 L 147 209.5 L 134.5 210 L 134.5 209 Z " /><path fill="rgb(135,135,135)" stroke="rgb(135,135,135)" stroke-width="1" opacity="1" d="M 158.5 209 L 169.5 209 L 171 210.5 L 170.5 230 L 170 210 L 158.5 210 L 158.5 209 Z " /><path fill="rgb(135,135,135)" stroke="rgb(135,135,135)" stroke-width="1" opacity="1" d="M 128.5 210 L 129.5 212 L 128.5 210 Z " /><path fill="rgb(135,135,135)" stroke="rgb(135,135,135)" stroke-width="1" opacity="1" d="M 240 210 L 251 210 L 251 225 L 261 225 L 261 230 L 254.5 230 L 253.5 229 L 252.5 230 L 240 230 L 240 210 Z " /><path fill="rgb(135,135,135)" stroke="rgb(135,135,135)" stroke-width="1" opacity="1" d="M 268.5 210 L 289.5 210 L 292 212.5 Q 294.3 217.2 293 225.5 L 289.5 230 L 285.5 229 L 284.5 230 L 268.5 230 L 265 226.5 L 265 213.5 L 268.5 210 Z M 276 215 L 276 221 L 276 223 L 276 225 L 282 225 L 282 215 L 276 215 Z " /><path fill="rgb(135,135,135)" stroke="rgb(135,135,135)" stroke-width="1" opacity="1" d="M 299.5 210 L 301.5 210 L 321.5 210 L 322 215 L 307 215 L 307 225 L 322 225 L 322 230 L 310.5 230 L 309.5 229 L 305.5 230 L 303.5 230 L 301.5 229 L 299.5 230 Q 293.6 226.4 296 214.5 L 299.5 210 Z " /><path fill="rgb(135,135,135)" stroke="rgb(135,135,135)" stroke-width="1" opacity="1" d="M 326 210 L 337 210 L 337 216.5 L 341 213.5 L 343.5 210 L 354 210.5 L 351 211.5 L 351 213.5 L 347 221.5 L 354 229.5 L 351.5 230 L 349.5 230 Q 341.5 231.5 340 226.5 L 337.5 223 L 337 230 L 326 230 L 326 210 Z " /><path fill="rgb(135,135,135)" stroke="rgb(135,135,135)" stroke-width="1" opacity="1" d="M 173.5 214 L 174 225.5 L 173 225.5 L 173.5 214 Z " /><path fill="rgb(135,135,135)" stroke="rgb(135,135,135)" stroke-width="1" opacity="1" d="M 86.5 215 L 99 215.5 L 86.5 216 L 86.5 215 Z " /><path fill="rgb(135,135,135)" stroke="rgb(135,135,135)" stroke-width="1" opacity="1" d="M 115.5 215 L 119 215.5 L 115.5 216 L 115.5 215 Z " /><path fill="rgb(135,135,135)" stroke="rgb(135,135,135)" stroke-width="1" opacity="1" d="M 186.5 215 L 190 215.5 L 186.5 216 L 186.5 215 Z " /><path fill="rgb(135,135,135)" stroke="rgb(135,135,135)" stroke-width="1" opacity="1" d="M 58.5 223 L 59 229.5 L 58 229.5 L 58.5 223 Z " /><path fill="rgb(135,135,135)" stroke="rgb(135,135,135)" stroke-width="1" opacity="1" d="M 114.5 228 L 115 230.5 L 114 230.5 L 114.5 228 Z " /><path fill="rgb(135,135,135)" stroke="rgb(135,135,135)" stroke-width="1" opacity="1" d="M 64 243 L 67 243.5 L 66 247 L 71 247.5 Q 66.4 246.9 65 249.5 L 66 252 L 73 252 L 73 248.5 L 72.5 247 L 75 248.5 Q 75.8 252.3 73.5 253 L 64 253 L 64 243 Z " /><path fill="rgb(135,135,135)" stroke="rgb(135,135,135)" stroke-width="1" opacity="1" d="M 68.5 243 L 75 244 Q 76 247 73 246 Q 74.3 242.3 68.5 244 L 68.5 243 Z " /><path fill="rgb(135,135,135)" stroke="rgb(135,135,135)" stroke-width="1" opacity="1" d="M 78.5 243 L 79 252 L 87 252 L 87 243.5 L 89 243 L 88 248.5 L 89 250.5 Q 87.3 254.8 79.5 253 L 78 251.5 L 78.5 243 Z " /><path fill="rgb(135,135,135)" stroke="rgb(135,135,135)" stroke-width="1" opacity="1" d="M 92.5 243 L 93 252.5 L 92 252.5 L 92.5 243 Z " /><path fill="rgb(135,135,135)" stroke="rgb(135,135,135)" stroke-width="1" opacity="1" d="M 96 243 L 98 243.5 L 98 252 L 105.5 252 L 105.5 253 L 96 253 L 96 243 Z " /><path fill="rgb(135,135,135)" stroke="rgb(135,135,135)" stroke-width="1" opacity="1" d="M 109 243 L 115 243.5 L 110 244 L 110 252 L 115.5 252 L 115.5 253 L 109 253 L 109 243 Z " /><path fill="rgb(135,135,135)" stroke="rgb(135,135,135)" stroke-width="1" opacity="1" d="M 122 243 L 124 243.5 L 124 253 L 122 252.5 L 122 243 Z " /><path fill="rgb(135,135,135)" stroke="rgb(135,135,135)" stroke-width="1" opacity="1" d="M 127.5 243 L 132.5 249 L 128 245.5 L 127.5 253 L 127.5 243 Z " /><path fill="rgb(135,135,135)" stroke="rgb(135,135,135)" stroke-width="1" opacity="1" d="M 142.5 243 L 150 243.5 L 142 244 L 141 249.5 L 142 252 L 145 252.5 L 142.5 253 Q 139 252 140 246.5 L 142.5 243 Z " /><path fill="rgb(135,135,135)" stroke="rgb(135,135,135)" stroke-width="1" opacity="1" d="M 160.5 243 L 172 243.5 L 166 244 L 165.5 253 L 165 244 L 160.5 244 L 160.5 243 Z " /><path fill="rgb(135,135,135)" stroke="rgb(135,135,135)" stroke-width="1" opacity="1" d="M 174 243 L 184 243.5 L 175 244 L 175 247 L 182.5 247 L 182.5 248 L 175 248 L 175 252.5 L 174 252.5 L 174 243 Z " /><path fill="rgb(135,135,135)" stroke="rgb(135,135,135)" stroke-width="1" opacity="1" d="M 189.5 243 L 197 243.5 L 189.5 244 L 189.5 243 Z " /><path fill="rgb(135,135,135)" stroke="rgb(135,135,135)" stroke-width="1" opacity="1" d="M 200.5 243 L 201 245.5 L 200 245.5 L 200.5 243 Z " /><path fill="rgb(135,135,135)" stroke="rgb(135,135,135)" stroke-width="1" opacity="1" d="M 209 243 L 211 243.5 L 211 253 L 209 253 L 209 248 L 201 248 L 200.5 253 L 200 247 L 209 247 L 209 243 Z " /><path fill="rgb(135,135,135)" stroke="rgb(135,135,135)" stroke-width="1" opacity="1" d="M 214.5 243 L 223 250.5 L 223.5 243 L 224 250.5 L 223.5 253 L 215 245.5 L 214.5 253 L 214.5 243 Z " /><path fill="rgb(135,135,135)" stroke="rgb(135,135,135)" stroke-width="1" opacity="1" d="M 229.5 243 L 236 243.5 L 229 244 L 229 252 L 237 252 L 237.5 244 L 238 251.5 Q 236.3 254.8 229.5 253 L 227 250.5 L 227 248.5 Q 226.3 243.8 229.5 243 Z " /><path fill="rgb(135,135,135)" stroke="rgb(135,135,135)" stroke-width="1" opacity="1" d="M 241 243 Q 245 241.6 243 248.5 L 243 250.5 L 243.5 252 L 250.5 252 L 250.5 253 L 241 253 L 241 243 Z " /><path fill="rgb(135,135,135)" stroke="rgb(135,135,135)" stroke-width="1" opacity="1" d="M 255.5 243 Q 262.3 241.3 264 244.5 Q 265.8 251.3 262.5 253 Q 255.8 254.8 254 251.5 Q 252.3 244.8 255.5 243 Z M 255 244 L 255 252 L 263 252 L 263 244 L 255 244 Z " /><path fill="rgb(135,135,135)" stroke="rgb(135,135,135)" stroke-width="1" opacity="1" d="M 269.5 243 L 277 243.5 L 269 244 L 269 252 L 277 252 Q 279.1 246.8 274.5 248 L 274.5 247 Q 280.2 245.2 278 251.5 L 276.5 253 L 268.5 253 L 267 251.5 L 267 244 L 269.5 243 Z " /><path fill="rgb(135,135,135)" stroke="rgb(135,135,135)" stroke-width="1" opacity="1" d="M 280.5 243 L 286.5 247 L 291 243.5 L 285.5 248 L 280.5 243 Z " /><path fill="rgb(135,135,135)" stroke="rgb(135,135,135)" stroke-width="1" opacity="1" d="M 117.5 244 L 119 246.5 L 117 245.5 L 117.5 244 Z " /><path fill="rgb(135,135,135)" stroke="rgb(135,135,135)" stroke-width="1" opacity="1" d="M 187.5 244 L 188 252 L 197 252.5 L 188.5 253 L 187 251.5 L 187.5 244 Z " /><path fill="rgb(135,135,135)" stroke="rgb(135,135,135)" stroke-width="1" opacity="1" d="M 136.5 246 L 137 252.5 L 134 250.5 L 136 250.5 L 136.5 246 Z " /><path fill="rgb(135,135,135)" stroke="rgb(135,135,135)" stroke-width="1" opacity="1" d="M 150.5 247 L 151 251.5 Q 150.3 253.8 146.5 253 L 146.5 252 L 150 252 L 150.5 247 Z " /><path fill="rgb(135,135,135)" stroke="rgb(135,135,135)" stroke-width="1" opacity="1" d="M 118.5 248 L 119 250.5 L 117 251.5 L 118.5 248 Z " /><path fill="rgb(135,135,135)" stroke="rgb(135,135,135)" stroke-width="1" opacity="1" d="M 285.5 249 L 286 252.5 L 285 252.5 L 285.5 249 Z " /><path fill="rgb(135,135,135)" stroke="rgb(135,135,135)" stroke-width="1" opacity="1" d="M 176.5 252 L 179 252.5 L 176.5 253 L 176.5 252 Z " /><path fill="rgb(135,135,135)" stroke="rgb(135,135,135)" stroke-width="1" opacity="1" d="M 180.5 252 L 184 252.5 L 180.5 253 L 180.5 252 Z " /><path fill="rgb(199,193,194)" stroke="rgb(199,193,194)" stroke-width="1" opacity="1" d="M 195.5 0 L 194.5 2 L 195.5 0 Z " /><path fill="rgb(199,193,194)" stroke="rgb(199,193,194)" stroke-width="1" opacity="1" d="M 191.5 3 L 190.5 5 L 191.5 3 Z " /><path fill="rgb(199,193,194)" stroke="rgb(199,193,194)" stroke-width="1" opacity="1" d="M 203.5 4 L 204.5 6 L 203.5 4 Z " /><path fill="rgb(199,193,194)" stroke="rgb(199,193,194)" stroke-width="1" opacity="1" d="M 188.5 5 L 187.5 7 L 188.5 5 Z " /><path fill="rgb(199,193,194)" stroke="rgb(199,193,194)" stroke-width="1" opacity="1" d="M 196.5 9 L 199 10.5 L 197.5 10 L 196.5 9 Z " /><path fill="rgb(199,193,194)" stroke="rgb(199,193,194)" stroke-width="1" opacity="1" d="M 210.5 9 L 211.5 11 L 210.5 9 Z " /><path fill="rgb(199,193,194)" stroke="rgb(199,193,194)" stroke-width="1" opacity="1" d="M 181.5 10 L 180.5 12 L 181.5 10 Z " /><path fill="rgb(199,193,194)" stroke="rgb(199,193,194)" stroke-width="1" opacity="1" d="M 194.5 10 L 193.5 12 L 194.5 10 Z " /><path fill="rgb(199,193,194)" stroke="rgb(199,193,194)" stroke-width="1" opacity="1" d="M 200.5 11 L 201.5 13 L 200.5 11 Z " /><path fill="rgb(199,193,194)" stroke="rgb(199,193,194)" stroke-width="1" opacity="1" d="M 213.5 11 L 214.5 13 L 213.5 11 Z " /><path fill="rgb(199,193,194)" stroke="rgb(199,193,194)" stroke-width="1" opacity="1" d="M 204.5 14 L 205.5 16 L 204.5 14 Z " /><path fill="rgb(199,193,194)" stroke="rgb(199,193,194)" stroke-width="1" opacity="1" d="M 217.5 14 L 218.5 16 L 217.5 14 Z " /><path fill="rgb(199,193,194)" stroke="rgb(199,193,194)" stroke-width="1" opacity="1" d="M 174.5 15 L 173.5 17 L 174.5 15 Z " /><path fill="rgb(199,193,194)" stroke="rgb(199,193,194)" stroke-width="1" opacity="1" d="M 187.5 15 L 186.5 17 L 187.5 15 Z " /><path fill="rgb(199,193,194)" stroke="rgb(199,193,194)" stroke-width="1" opacity="1" d="M 207.5 16 L 208.5 18 L 207.5 16 Z " /><path fill="rgb(199,193,194)" stroke="rgb(199,193,194)" stroke-width="1" opacity="1" d="M 220.5 16 L 221.5 18 L 220.5 16 Z " /><path fill="rgb(199,193,194)" stroke="rgb(199,193,194)" stroke-width="1" opacity="1" d="M 184.5 17 L 183.5 19 L 184.5 17 Z " /><path fill="rgb(199,193,194)" stroke="rgb(199,193,194)" stroke-width="1" opacity="1" d="M 224.5 19 L 225.5 21 L 224.5 19 Z " /><path fill="rgb(199,193,194)" stroke="rgb(199,193,194)" stroke-width="1" opacity="1" d="M 167.5 20 L 166.5 22 L 167.5 20 Z " /><path fill="rgb(199,193,194)" stroke="rgb(199,193,194)" stroke-width="1" opacity="1" d="M 180.5 20 L 179.5 22 L 180.5 20 Z " /><path fill="rgb(199,193,194)" stroke="rgb(199,193,194)" stroke-width="1" opacity="1" d="M 214.5 21 L 215.5 23 L 214.5 21 Z " /><path fill="rgb(199,193,194)" stroke="rgb(199,193,194)" stroke-width="1" opacity="1" d="M 227.5 21 L 228.5 23 L 227.5 21 Z " /><path fill="rgb(199,193,194)" stroke="rgb(199,193,194)" stroke-width="1" opacity="1" d="M 164.5 22 L 163.5 24 L 164.5 22 Z " /><path fill="rgb(199,193,194)" stroke="rgb(199,193,194)" stroke-width="1" opacity="1" d="M 177.5 22 L 176.5 24 L 177.5 22 Z " /><path fill="rgb(199,193,194)" stroke="rgb(199,193,194)" stroke-width="1" opacity="1" d="M 160.5 25 L 159.5 27 L 160.5 25 Z " /><path fill="rgb(199,193,194)" stroke="rgb(199,193,194)" stroke-width="1" opacity="1" d="M 221.5 26 L 222.5 28 L 221.5 26 Z " /><path fill="rgb(199,193,194)" stroke="rgb(199,193,194)" stroke-width="1" opacity="1" d="M 234.5 26 L 235.5 28 L 234.5 26 Z " /><path fill="rgb(199,193,194)" stroke="rgb(199,193,194)" stroke-width="1" opacity="1" d="M 157.5 27 L 156.5 29 L 157.5 27 Z " /><path fill="rgb(199,193,194)" stroke="rgb(199,193,194)" stroke-width="1" opacity="1" d="M 170.5 27 L 169.5 29 L 170.5 27 Z " /><path fill="rgb(199,193,194)" stroke="rgb(199,193,194)" stroke-width="1" opacity="1" d="M 122.5 29 L 121.5 31 L 122.5 29 Z " /><path fill="rgb(199,193,194)" stroke="rgb(199,193,194)" stroke-width="1" opacity="1" d="M 126.5 29 L 127.5 31 L 126.5 29 Z " /><path fill="rgb(199,193,194)" stroke="rgb(199,193,194)" stroke-width="1" opacity="1" d="M 228.5 31 L 229.5 33 L 228.5 31 Z " /><path fill="rgb(199,193,194)" stroke="rgb(199,193,194)" stroke-width="1" opacity="1" d="M 241.5 31 L 242.5 33 L 241.5 31 Z " /><path fill="rgb(199,193,194)" stroke="rgb(199,193,194)" stroke-width="1" opacity="1" d="M 118.5 32 L 117.5 34 L 118.5 32 Z " /><path fill="rgb(199,193,194)" stroke="rgb(199,193,194)" stroke-width="1" opacity="1" d="M 150.5 32 L 149.5 34 L 150.5 32 Z " /><path fill="rgb(199,193,194)" stroke="rgb(199,193,194)" stroke-width="1" opacity="1" d="M 163.5 32 L 162.5 34 L 163.5 32 Z " /><path fill="rgb(199,193,194)" stroke="rgb(199,193,194)" stroke-width="1" opacity="1" d="M 231.5 33 L 232.5 35 L 231.5 33 Z " /><path fill="rgb(199,193,194)" stroke="rgb(199,193,194)" stroke-width="1" opacity="1" d="M 244.5 33 L 245.5 35 L 244.5 33 Z " /><path fill="rgb(199,193,194)" stroke="rgb(199,193,194)" stroke-width="1" opacity="1" d="M 115.5 34 L 114.5 36 L 115.5 34 Z " /><path fill="rgb(199,193,194)" stroke="rgb(199,193,194)" stroke-width="1" opacity="1" d="M 133.5 34 L 134.5 36 L 133.5 34 Z " /><path fill="rgb(199,193,194)" stroke="rgb(199,193,194)" stroke-width="1" opacity="1" d="M 136.5 36 L 137.5 38 L 136.5 36 Z " /><path fill="rgb(199,193,194)" stroke="rgb(199,193,194)" stroke-width="1" opacity="1" d="M 235.5 36 L 236.5 38 L 235.5 36 Z " /><path fill="rgb(199,193,194)" stroke="rgb(199,193,194)" stroke-width="1" opacity="1" d="M 248.5 36 L 249.5 38 L 248.5 36 Z " /><path fill="rgb(199,193,194)" stroke="rgb(199,193,194)" stroke-width="1" opacity="1" d="M 143.5 37 L 142.5 39 L 143.5 37 Z " /><path fill="rgb(199,193,194)" stroke="rgb(199,193,194)" stroke-width="1" opacity="1" d="M 156.5 37 L 155.5 39 L 156.5 37 Z " /><path fill="rgb(199,193,194)" stroke="rgb(199,193,194)" stroke-width="1" opacity="1" d="M 238.5 38 L 239.5 40 L 238.5 38 Z " /><path fill="rgb(199,193,194)" stroke="rgb(199,193,194)" stroke-width="1" opacity="1" d="M 251.5 38 L 252.5 40 L 251.5 38 Z " /><path fill="rgb(199,193,194)" stroke="rgb(199,193,194)" stroke-width="1" opacity="1" d="M 108.5 39 L 107.5 41 L 108.5 39 Z " /><path fill="rgb(199,193,194)" stroke="rgb(199,193,194)" stroke-width="1" opacity="1" d="M 121.5 39 L 120.5 41 L 121.5 39 Z " /><path fill="rgb(199,193,194)" stroke="rgb(199,193,194)" stroke-width="1" opacity="1" d="M 127.5 39 L 128.5 41 L 127.5 39 Z " /><path fill="rgb(199,193,194)" stroke="rgb(199,193,194)" stroke-width="1" opacity="1" d="M 153.5 39 L 152.5 41 L 153.5 39 Z " /><path fill="rgb(199,193,194)" stroke="rgb(199,193,194)" stroke-width="1" opacity="1" d="M 130.5 41 L 131.5 43 L 130.5 41 Z " /><path fill="rgb(199,193,194)" stroke="rgb(199,193,194)" stroke-width="1" opacity="1" d="M 255.5 41 L 256.5 43 L 255.5 41 Z " /><path fill="rgb(199,193,194)" stroke="rgb(199,193,194)" stroke-width="1" opacity="1" d="M 149.5 42 L 148.5 46 Q 145 44 149.5 42 Z " /><path fill="rgb(199,193,194)" stroke="rgb(199,193,194)" stroke-width="1" opacity="1" d="M 245.5 43 L 246.5 45 L 245.5 43 Z " /><path fill="rgb(199,193,194)" stroke="rgb(199,193,194)" stroke-width="1" opacity="1" d="M 258.5 43 L 259.5 45 L 258.5 43 Z " /><path fill="rgb(199,193,194)" stroke="rgb(199,193,194)" stroke-width="1" opacity="1" d="M 101.5 44 L 100.5 46 L 101.5 44 Z " /><path fill="rgb(199,193,194)" stroke="rgb(199,193,194)" stroke-width="1" opacity="1" d="M 114.5 44 L 113.5 46 L 114.5 44 Z " /><path fill="rgb(199,193,194)" stroke="rgb(199,193,194)" stroke-width="1" opacity="1" d="M 133.5 44 L 132.5 46 L 133.5 44 Z " /><path fill="rgb(199,193,194)" stroke="rgb(199,193,194)" stroke-width="1" opacity="1" d="M 150.5 46 L 151.5 48 L 150.5 46 Z " /><path fill="rgb(199,193,194)" stroke="rgb(199,193,194)" stroke-width="1" opacity="1" d="M 129.5 47 L 128.5 49 L 129.5 47 Z " /><path fill="rgb(199,193,194)" stroke="rgb(199,193,194)" stroke-width="1" opacity="1" d="M 252.5 48 L 253.5 50 L 252.5 48 Z " /><path fill="rgb(199,193,194)" stroke="rgb(199,193,194)" stroke-width="1" opacity="1" d="M 265.5 48 L 266.5 50 L 265.5 48 Z " /><path fill="rgb(199,193,194)" stroke="rgb(199,193,194)" stroke-width="1" opacity="1" d="M 94.5 49 L 93.5 51 L 94.5 49 Z " /><path fill="rgb(199,193,194)" stroke="rgb(199,193,194)" stroke-width="1" opacity="1" d="M 107.5 49 L 106.5 51 L 107.5 49 Z " /><path fill="rgb(199,193,194)" stroke="rgb(199,193,194)" stroke-width="1" opacity="1" d="M 126.5 49 L 125.5 51 L 126.5 49 Z " /><path fill="rgb(199,193,194)" stroke="rgb(199,193,194)" stroke-width="1" opacity="1" d="M 139.5 49 L 138.5 51 L 139.5 49 Z " /><path fill="rgb(199,193,194)" stroke="rgb(199,193,194)" stroke-width="1" opacity="1" d="M 91.5 51 L 90.5 53 L 91.5 51 Z " /><path fill="rgb(199,193,194)" stroke="rgb(199,193,194)" stroke-width="1" opacity="1" d="M 104.5 51 L 103.5 53 L 104.5 51 Z " /><path fill="rgb(199,193,194)" stroke="rgb(199,193,194)" stroke-width="1" opacity="1" d="M 144.5 51 L 145.5 53 L 144.5 51 Z " /><path fill="rgb(199,193,194)" stroke="rgb(199,193,194)" stroke-width="1" opacity="1" d="M 157.5 51 L 158.5 53 L 157.5 51 Z " /><path fill="rgb(199,193,194)" stroke="rgb(199,193,194)" stroke-width="1" opacity="1" d="M 122.5 52 L 122 53.5 L 122 164 L 185.5 164 L 185.5 165 L 122.5 165 L 121 163.5 L 121 53.5 L 122.5 52 Z " /><path fill="rgb(199,193,194)" stroke="rgb(199,193,194)" stroke-width="1" opacity="1" d="M 259.5 53 L 260.5 55 L 259.5 53 Z " /><path fill="rgb(199,193,194)" stroke="rgb(199,193,194)" stroke-width="1" opacity="1" d="M 87.5 54 L 86.5 56 L 87.5 54 Z " /><path fill="rgb(199,193,194)" stroke="rgb(199,193,194)" stroke-width="1" opacity="1" d="M 100.5 54 L 99.5 56 L 100.5 54 Z " /><path fill="rgb(199,193,194)" stroke="rgb(199,193,194)" stroke-width="1" opacity="1" d="M 132.5 54 L 131.5 56 L 132.5 54 Z " /><path fill="rgb(199,193,194)" stroke="rgb(199,193,194)" stroke-width="1" opacity="1" d="M 262.5 55 L 265 57.5 L 265 79 L 263 78.5 L 264 77.5 L 264 57.5 L 262.5 55 Z " /><path fill="rgb(199,193,194)" stroke="rgb(199,193,194)" stroke-width="1" opacity="1" d="M 84.5 56 L 83.5 58 L 84.5 56 Z " /><path fill="rgb(199,193,194)" stroke="rgb(199,193,194)" stroke-width="1" opacity="1" d="M 97.5 56 L 96.5 58 L 97.5 56 Z " /><path fill="rgb(199,193,194)" stroke="rgb(199,193,194)" stroke-width="1" opacity="1" d="M 151.5 56 L 152.5 58 L 151.5 56 Z " /><path fill="rgb(199,193,194)" stroke="rgb(199,193,194)" stroke-width="1" opacity="1" d="M 164.5 56 L 165.5 58 L 164.5 56 Z " /><path fill="rgb(199,193,194)" stroke="rgb(199,193,194)" stroke-width="1" opacity="1" d="M 154.5 58 L 155.5 60 L 154.5 58 Z " /><path fill="rgb(199,193,194)" stroke="rgb(199,193,194)" stroke-width="1" opacity="1" d="M 167.5 58 L 168.5 60 L 167.5 58 Z " /><path fill="rgb(199,193,194)" stroke="rgb(199,193,194)" stroke-width="1" opacity="1" d="M 80.5 59 L 79.5 61 L 80.5 59 Z " /><path fill="rgb(199,193,194)" stroke="rgb(199,193,194)" stroke-width="1" opacity="1" d="M 77.5 61 L 76.5 63 L 77.5 61 Z " /><path fill="rgb(199,193,194)" stroke="rgb(199,193,194)" stroke-width="1" opacity="1" d="M 90.5 61 L 89.5 63 L 90.5 61 Z " /><path fill="rgb(199,193,194)" stroke="rgb(199,193,194)" stroke-width="1" opacity="1" d="M 158.5 61 L 159.5 63 L 158.5 61 Z " /><path fill="rgb(199,193,194)" stroke="rgb(199,193,194)" stroke-width="1" opacity="1" d="M 171.5 61 L 172.5 63 L 171.5 61 Z " /><path fill="rgb(199,193,194)" stroke="rgb(199,193,194)" stroke-width="1" opacity="1" d="M 161.5 63 L 162.5 65 L 161.5 63 Z " /><path fill="rgb(199,193,194)" stroke="rgb(199,193,194)" stroke-width="1" opacity="1" d="M 174.5 63 L 175.5 65 L 174.5 63 Z " /><path fill="rgb(199,193,194)" stroke="rgb(199,193,194)" stroke-width="1" opacity="1" d="M 70.5 66 L 69.5 68 L 70.5 66 Z " /><path fill="rgb(199,193,194)" stroke="rgb(199,193,194)" stroke-width="1" opacity="1" d="M 83.5 66 L 82.5 68 L 83.5 66 Z " /><path fill="rgb(199,193,194)" stroke="rgb(199,193,194)" stroke-width="1" opacity="1" d="M 178.5 66 L 179.5 68 L 178.5 66 Z " /><path fill="rgb(199,193,194)" stroke="rgb(199,193,194)" stroke-width="1" opacity="1" d="M 168.5 68 L 169.5 70 L 168.5 68 Z " /><path fill="rgb(199,193,194)" stroke="rgb(199,193,194)" stroke-width="1" opacity="1" d="M 181.5 68 L 182.5 70 L 181.5 68 Z " /><path fill="rgb(199,193,194)" stroke="rgb(199,193,194)" stroke-width="1" opacity="1" d="M 249.5 69 L 251 69.5 L 248.5 71 L 249.5 69 Z " /><path fill="rgb(199,193,194)" stroke="rgb(199,193,194)" stroke-width="1" opacity="1" d="M 63.5 71 L 63 72.5 L 63 164 L 113 164 L 113 123 L 84 123 L 83.5 151 L 83 123.5 L 84.5 122 L 112.5 122 L 114 123.5 L 114 163.5 L 112.5 165 L 63.5 165 L 62 163.5 L 62 72.5 L 63.5 71 Z " /><path fill="rgb(199,193,194)" stroke="rgb(199,193,194)" stroke-width="1" opacity="1" d="M 76.5 71 L 75.5 73 L 76.5 71 Z " /><path fill="rgb(199,193,194)" stroke="rgb(199,193,194)" stroke-width="1" opacity="1" d="M 185.5 71 L 186.5 73 L 185.5 71 Z " /><path fill="rgb(199,193,194)" stroke="rgb(199,193,194)" stroke-width="1" opacity="1" d="M 73.5 73 L 72.5 75 L 73.5 73 Z " /><path fill="rgb(199,193,194)" stroke="rgb(199,193,194)" stroke-width="1" opacity="1" d="M 175.5 73 L 176.5 75 L 175.5 73 Z " /><path fill="rgb(199,193,194)" stroke="rgb(199,193,194)" stroke-width="1" opacity="1" d="M 256.5 73 L 257.5 75 L 256.5 73 Z " /><path fill="rgb(199,193,194)" stroke="rgb(199,193,194)" stroke-width="1" opacity="1" d="M 242.5 74 L 241.5 76 L 242.5 74 Z " /><path fill="rgb(199,193,194)" stroke="rgb(199,193,194)" stroke-width="1" opacity="1" d="M 179.5 76 L 180 155.5 L 179 155.5 L 179.5 76 Z " /><path fill="rgb(199,193,194)" stroke="rgb(199,193,194)" stroke-width="1" opacity="1" d="M 250.5 78 L 251.5 80 L 250.5 78 Z " /><path fill="rgb(199,193,194)" stroke="rgb(199,193,194)" stroke-width="1" opacity="1" d="M 235.5 79 L 234.5 81 L 235.5 79 Z " /><path fill="rgb(199,193,194)" stroke="rgb(199,193,194)" stroke-width="1" opacity="1" d="M 248.5 79 L 247.5 81 L 248.5 79 Z " /><path fill="rgb(199,193,194)" stroke="rgb(199,193,194)" stroke-width="1" opacity="1" d="M 253.5 80 L 254.5 82 L 253.5 80 Z " /><path fill="rgb(199,193,194)" stroke="rgb(199,193,194)" stroke-width="1" opacity="1" d="M 232.5 81 L 231.5 83 L 232.5 81 Z " /><path fill="rgb(199,193,194)" stroke="rgb(199,193,194)" stroke-width="1" opacity="1" d="M 245.5 81 L 244.5 83 L 245.5 81 Z " /><path fill="rgb(199,193,194)" stroke="rgb(199,193,194)" stroke-width="1" opacity="1" d="M 257.5 83 L 258.5 85 L 257.5 83 Z " /><path fill="rgb(199,193,194)" stroke="rgb(199,193,194)" stroke-width="1" opacity="1" d="M 228.5 84 L 227.5 86 L 228.5 84 Z " /><path fill="rgb(199,193,194)" stroke="rgb(199,193,194)" stroke-width="1" opacity="1" d="M 241.5 84 L 240.5 86 L 241.5 84 Z " /><path fill="rgb(199,193,194)" stroke="rgb(199,193,194)" stroke-width="1" opacity="1" d="M 260.5 85 L 261.5 87 L 260.5 85 Z " /><path fill="rgb(199,193,194)" stroke="rgb(199,193,194)" stroke-width="1" opacity="1" d="M 273.5 85 L 274.5 87 L 273.5 85 Z " /><path fill="rgb(199,193,194)" stroke="rgb(199,193,194)" stroke-width="1" opacity="1" d="M 225.5 86 L 224.5 88 L 225.5 86 Z " /><path fill="rgb(199,193,194)" stroke="rgb(199,193,194)" stroke-width="1" opacity="1" d="M 238.5 86 L 237.5 88 L 238.5 86 Z " /><path fill="rgb(199,193,194)" stroke="rgb(199,193,194)" stroke-width="1" opacity="1" d="M 277.5 88 L 278.5 90 L 277.5 88 Z " /><path fill="rgb(199,193,194)" stroke="rgb(199,193,194)" stroke-width="1" opacity="1" d="M 280.5 90 L 281.5 92 L 280.5 90 Z " /><path fill="rgb(199,193,194)" stroke="rgb(199,193,194)" stroke-width="1" opacity="1" d="M 218.5 91 L 217.5 93 L 218.5 91 Z " /><path fill="rgb(199,193,194)" stroke="rgb(199,193,194)" stroke-width="1" opacity="1" d="M 231.5 91 L 230.5 93 L 231.5 91 Z " /><path fill="rgb(199,193,194)" stroke="rgb(199,193,194)" stroke-width="1" opacity="1" d="M 274.5 95 L 275.5 97 L 274.5 95 Z " /><path fill="rgb(199,193,194)" stroke="rgb(199,193,194)" stroke-width="1" opacity="1" d="M 287.5 95 L 288.5 97 L 287.5 95 Z " /><path fill="rgb(199,193,194)" stroke="rgb(199,193,194)" stroke-width="1" opacity="1" d="M 211.5 96 L 210.5 98 L 211.5 96 Z " /><path fill="rgb(199,193,194)" stroke="rgb(199,193,194)" stroke-width="1" opacity="1" d="M 224.5 96 L 223.5 98 L 224.5 96 Z " /><path fill="rgb(199,193,194)" stroke="rgb(199,193,194)" stroke-width="1" opacity="1" d="M 207.5 99 L 207 100.5 L 207 164 L 271.5 164 L 271.5 165 L 207.5 165 L 206 163.5 L 206 100.5 L 207.5 99 Z " /><path fill="rgb(199,193,194)" stroke="rgb(199,193,194)" stroke-width="1" opacity="1" d="M 281.5 100 L 282.5 102 L 281.5 100 Z " /><path fill="rgb(199,193,194)" stroke="rgb(199,193,194)" stroke-width="1" opacity="1" d="M 293.5 100 L 294 163.5 Q 292.8 166.3 287.5 165 L 287.5 164 Q 292.9 164.6 293 163.5 L 293.5 100 Z " /><path fill="rgb(199,193,194)" stroke="rgb(199,193,194)" stroke-width="1" opacity="1" d="M 217.5 101 L 216.5 103 L 217.5 101 Z " /><path fill="rgb(199,193,194)" stroke="rgb(199,193,194)" stroke-width="1" opacity="1" d="M 284.5 102 L 285.5 104 L 284.5 102 Z " /><path fill="rgb(199,193,194)" stroke="rgb(199,193,194)" stroke-width="1" opacity="1" d="M 0.5 201 L 1 209 L 12 209.5 L 1.5 210 L 0 208.5 L 0.5 201 Z " /><path fill="rgb(199,193,194)" stroke="rgb(199,193,194)" stroke-width="1" opacity="1" d="M 40.5 201 L 42 209.5 L 42 230.5 L 41 230.5 L 41 210 L 29.5 210 L 29.5 209 L 40 209 L 40.5 201 Z " /><path fill="rgb(199,193,194)" stroke="rgb(199,193,194)" stroke-width="1" opacity="1" d="M 230.5 201 L 233 201.5 L 230.5 202 L 230.5 201 Z " /><path fill="rgb(199,193,194)" stroke="rgb(199,193,194)" stroke-width="1" opacity="1" d="M 234.5 202 L 235.5 204 L 234.5 202 Z " /><path fill="rgb(199,193,194)" stroke="rgb(199,193,194)" stroke-width="1" opacity="1" d="M 236.5 206 L 237 210.5 L 236 210.5 L 236.5 206 Z " /><path fill="rgb(199,193,194)" stroke="rgb(199,193,194)" stroke-width="1" opacity="1" d="M 102.5 209 L 103 230.5 L 102 230.5 L 102.5 209 Z " /><path fill="rgb(199,193,194)" stroke="rgb(199,193,194)" stroke-width="1" opacity="1" d="M 176.5 209 L 174.5 212 L 176.5 209 Z " /><path fill="rgb(199,193,194)" stroke="rgb(199,193,194)" stroke-width="1" opacity="1" d="M 239 209 L 252 209 L 252 224 L 262 224 L 262 230.5 L 261 230.5 L 261 225 L 252.5 225 L 251 223.5 L 251 210 L 240 210 L 240 230.5 L 239 230.5 L 239 209 Z " /><path fill="rgb(199,193,194)" stroke="rgb(199,193,194)" stroke-width="1" opacity="1" d="M 268.5 209 L 289.5 209 L 292 211.5 L 289.5 210 L 268.5 210 L 268.5 209 Z " /><path fill="rgb(199,193,194)" stroke="rgb(199,193,194)" stroke-width="1" opacity="1" d="M 299.5 209 L 322.5 209 L 323 209.5 L 323 216 L 308 215.5 L 322 215 L 321.5 210 L 299.5 210 L 296 212.5 L 299.5 209 Z " /><path fill="rgb(199,193,194)" stroke="rgb(199,193,194)" stroke-width="1" opacity="1" d="M 325.5 209 L 336.5 209 L 338 210.5 L 337.5 216 L 337 210 L 325.5 210 L 325.5 209 Z " /><path fill="rgb(199,193,194)" stroke="rgb(199,193,194)" stroke-width="1" opacity="1" d="M 343.5 209 L 354.5 209 L 355 210.5 L 353 211.5 L 353.5 210 L 343.5 210 L 343.5 209 Z " /><path fill="rgb(199,193,194)" stroke="rgb(199,193,194)" stroke-width="1" opacity="1" d="M 341.5 211 L 340.5 213 L 341.5 211 Z " /><path fill="rgb(199,193,194)" stroke="rgb(199,193,194)" stroke-width="1" opacity="1" d="M 209.5 213 L 223 213.5 L 209.5 214 L 209.5 213 Z " /><path fill="rgb(199,193,194)" stroke="rgb(199,193,194)" stroke-width="1" opacity="1" d="M 235.5 213 L 234.5 215 L 235.5 213 Z " /><path fill="rgb(199,193,194)" stroke="rgb(199,193,194)" stroke-width="1" opacity="1" d="M 131.5 214 L 132 219.5 L 131 219.5 L 131.5 214 Z " /><path fill="rgb(199,193,194)" stroke="rgb(199,193,194)" stroke-width="1" opacity="1" d="M 264.5 214 L 265 225.5 L 264 225.5 L 264.5 214 Z " /><path fill="rgb(199,193,194)" stroke="rgb(199,193,194)" stroke-width="1" opacity="1" d="M 351.5 214 L 350.5 216 L 351.5 214 Z " /><path fill="rgb(199,193,194)" stroke="rgb(199,193,194)" stroke-width="1" opacity="1" d="M 151.5 215 L 152.5 217 L 151.5 215 Z " /><path fill="rgb(199,193,194)" stroke="rgb(199,193,194)" stroke-width="1" opacity="1" d="M 232.5 215 L 233.5 217 L 232.5 215 Z " /><path fill="rgb(199,193,194)" stroke="rgb(199,193,194)" stroke-width="1" opacity="1" d="M 277.5 215 L 281 215.5 L 277 216 L 277 224 L 280.5 224 L 280.5 225 L 276 225 L 276 216.5 L 277.5 215 Z " /><path fill="rgb(199,193,194)" stroke="rgb(199,193,194)" stroke-width="1" opacity="1" d="M 185.5 216 L 186 224 Q 189.7 225.5 189 222.5 L 190 222.5 L 188.5 225 L 185 223.5 L 185.5 216 Z " /><path fill="rgb(199,193,194)" stroke="rgb(199,193,194)" stroke-width="1" opacity="1" d="M 209.5 218 L 223 218.5 L 209.5 219 L 209.5 218 Z " /><path fill="rgb(199,193,194)" stroke="rgb(199,193,194)" stroke-width="1" opacity="1" d="M 348.5 218 L 348 219.5 L 347.5 221 L 347 219.5 L 348.5 218 Z " /><path fill="rgb(199,193,194)" stroke="rgb(199,193,194)" stroke-width="1" opacity="1" d="M 236.5 219 L 237 226.5 L 236 226.5 L 236.5 219 Z " /><path fill="rgb(199,193,194)" stroke="rgb(199,193,194)" stroke-width="1" opacity="1" d="M 209.5 222 L 223 222.5 L 209.5 223 L 209.5 222 Z " /><path fill="rgb(199,193,194)" stroke="rgb(199,193,194)" stroke-width="1" opacity="1" d="M 54.5 223 L 58 223.5 L 54.5 224 L 54.5 223 Z " /><path fill="rgb(199,193,194)" stroke="rgb(199,193,194)" stroke-width="1" opacity="1" d="M 349.5 223 L 351.5 226 L 349.5 223 Z " /><path fill="rgb(199,193,194)" stroke="rgb(199,193,194)" stroke-width="1" opacity="1" d="M 308.5 224 L 321.5 224 L 323 225.5 L 322.5 231 L 322 225 L 308.5 225 L 308.5 224 Z " /><path fill="rgb(199,193,194)" stroke="rgb(199,193,194)" stroke-width="1" opacity="1" d="M 337.5 224 L 338 229.5 L 337 229.5 L 337.5 224 Z " /><path fill="rgb(199,193,194)" stroke="rgb(199,193,194)" stroke-width="1" opacity="1" d="M 128.5 225 L 129.5 227 L 128.5 225 Z " /><path fill="rgb(199,193,194)" stroke="rgb(199,193,194)" stroke-width="1" opacity="1" d="M 146.5 225 L 149 228.5 L 146 228.5 L 146.5 225 Z " /><path fill="rgb(199,193,194)" stroke="rgb(199,193,194)" stroke-width="1" opacity="1" d="M 115.5 226 L 116.5 228 L 115.5 226 Z " /><path fill="rgb(199,193,194)" stroke="rgb(199,193,194)" stroke-width="1" opacity="1" d="M 157.5 226 Q 159.8 226.8 159 230.5 L 158 230.5 L 157.5 226 Z " /><path fill="rgb(199,193,194)" stroke="rgb(199,193,194)" stroke-width="1" opacity="1" d="M 339.5 226 L 340.5 228 L 339.5 226 Z " /><path fill="rgb(199,193,194)" stroke="rgb(199,193,194)" stroke-width="1" opacity="1" d="M 292.5 227 L 291.5 229 L 292.5 227 Z " /><path fill="rgb(199,193,194)" stroke="rgb(199,193,194)" stroke-width="1" opacity="1" d="M 296.5 227 L 297.5 229 L 296.5 227 Z " /><path fill="rgb(199,193,194)" stroke="rgb(199,193,194)" stroke-width="1" opacity="1" d="M 156.5 228 L 155.5 230 L 156.5 228 Z " /><path fill="rgb(199,193,194)" stroke="rgb(199,193,194)" stroke-width="1" opacity="1" d="M 174.5 228 L 176.5 231 L 174.5 228 Z " /><path fill="rgb(199,193,194)" stroke="rgb(199,193,194)" stroke-width="1" opacity="1" d="M 353.5 228 L 354.5 230 L 353.5 228 Z " /><path fill="rgb(199,193,194)" stroke="rgb(199,193,194)" stroke-width="1" opacity="1" d="M 229.5 230 L 232 230.5 L 229.5 231 L 229.5 230 Z " /><path fill="rgb(199,193,194)" stroke="rgb(199,193,194)" stroke-width="1" opacity="1" d="M 77.5 243 L 78 251.5 L 77 251.5 L 77.5 243 Z " /><path fill="rgb(199,193,194)" stroke="rgb(199,193,194)" stroke-width="1" opacity="1" d="M 93.5 243 L 94 252.5 L 93 252.5 L 93.5 243 Z " /><path fill="rgb(199,193,194)" stroke="rgb(199,193,194)" stroke-width="1" opacity="1" d="M 95.5 243 L 96 252.5 L 95 252.5 L 95.5 243 Z " /><path fill="rgb(199,193,194)" stroke="rgb(199,193,194)" stroke-width="1" opacity="1" d="M 116.5 243 L 119 244.5 L 117.5 244 L 116 244.5 L 116.5 246 L 113 244.5 L 116.5 243 Z " /><path fill="rgb(199,193,194)" stroke="rgb(199,193,194)" stroke-width="1" opacity="1" d="M 135.5 243 L 136 250 L 133 248.5 L 135 248.5 L 135.5 243 Z " /><path fill="rgb(199,193,194)" stroke="rgb(199,193,194)" stroke-width="1" opacity="1" d="M 173.5 243 L 174 252.5 L 173 252.5 L 173.5 243 Z " /><path fill="rgb(199,193,194)" stroke="rgb(199,193,194)" stroke-width="1" opacity="1" d="M 187.5 243 L 187 244.5 L 186.5 252 L 186 244.5 L 187.5 243 Z " /><path fill="rgb(199,193,194)" stroke="rgb(199,193,194)" stroke-width="1" opacity="1" d="M 197.5 243 L 196.5 245 L 197.5 243 Z " /><path fill="rgb(199,193,194)" stroke="rgb(199,193,194)" stroke-width="1" opacity="1" d="M 199.5 243 L 200 252.5 L 199 252.5 L 199.5 243 Z " /><path fill="rgb(199,193,194)" stroke="rgb(199,193,194)" stroke-width="1" opacity="1" d="M 222.5 243 L 223 250 L 220 248.5 L 222 248.5 L 222.5 243 Z " /><path fill="rgb(199,193,194)" stroke="rgb(199,193,194)" stroke-width="1" opacity="1" d="M 237.5 243 Q 240.8 244.8 239 251.5 L 238 251.5 Q 238.6 244.8 237.5 243 Z " /><path fill="rgb(199,193,194)" stroke="rgb(199,193,194)" stroke-width="1" opacity="1" d="M 240.5 243 L 241 252.5 L 240 252.5 L 240.5 243 Z " /><path fill="rgb(199,193,194)" stroke="rgb(199,193,194)" stroke-width="1" opacity="1" d="M 279.5 243 L 285 248.5 L 285 252.5 L 284 252.5 L 284 248.5 L 279.5 243 Z " /><path fill="rgb(199,193,194)" stroke="rgb(199,193,194)" stroke-width="1" opacity="1" d="M 282.5 243 L 285.5 247 L 282.5 243 Z " /><path fill="rgb(199,193,194)" stroke="rgb(199,193,194)" stroke-width="1" opacity="1" d="M 291.5 243 L 287.5 248 L 291.5 243 Z " /><path fill="rgb(199,193,194)" stroke="rgb(199,193,194)" stroke-width="1" opacity="1" d="M 110.5 244 L 111 251.5 L 110 251.5 L 110.5 244 Z " /><path fill="rgb(199,193,194)" stroke="rgb(199,193,194)" stroke-width="1" opacity="1" d="M 142.5 244 L 143 251.5 L 142 251.5 L 142.5 244 Z " /><path fill="rgb(199,193,194)" stroke="rgb(199,193,194)" stroke-width="1" opacity="1" d="M 164.5 244 L 165 252.5 L 164 252.5 L 164.5 244 Z " /><path fill="rgb(199,193,194)" stroke="rgb(199,193,194)" stroke-width="1" opacity="1" d="M 229.5 244 L 230 251.5 L 229 251.5 L 229.5 244 Z " /><path fill="rgb(199,193,194)" stroke="rgb(199,193,194)" stroke-width="1" opacity="1" d="M 255.5 244 L 256 251.5 L 255 251.5 L 255.5 244 Z " /><path fill="rgb(199,193,194)" stroke="rgb(199,193,194)" stroke-width="1" opacity="1" d="M 261.5 244 Q 264.3 245.3 263 250.5 L 262 250.5 L 261.5 244 Z " /><path fill="rgb(199,193,194)" stroke="rgb(199,193,194)" stroke-width="1" opacity="1" d="M 264.5 244 L 265 251.5 L 264 251.5 L 264.5 244 Z " /><path fill="rgb(199,193,194)" stroke="rgb(199,193,194)" stroke-width="1" opacity="1" d="M 86.5 245 L 87 247.5 L 86 247.5 L 86.5 245 Z " /><path fill="rgb(199,193,194)" stroke="rgb(199,193,194)" stroke-width="1" opacity="1" d="M 119.5 246 L 120 249.5 L 119 249.5 L 119.5 246 Z " /><path fill="rgb(199,193,194)" stroke="rgb(199,193,194)" stroke-width="1" opacity="1" d="M 128 246 L 131 247.5 L 129 247.5 L 128.5 253 L 128 246 Z " /><path fill="rgb(199,193,194)" stroke="rgb(199,193,194)" stroke-width="1" opacity="1" d="M 215 246 L 218 247.5 L 216 247.5 L 215.5 253 L 215 246 Z " /><path fill="rgb(199,193,194)" stroke="rgb(199,193,194)" stroke-width="1" opacity="1" d="M 151.5 247 L 152 251.5 L 151 251.5 L 151.5 247 Z " /><path fill="rgb(199,193,194)" stroke="rgb(199,193,194)" stroke-width="1" opacity="1" d="M 278.5 247 L 279 251.5 L 277 252.5 L 278.5 247 Z " /><path fill="rgb(199,193,194)" stroke="rgb(199,193,194)" stroke-width="1" opacity="1" d="M 75.5 249 L 76 251.5 L 74 252.5 L 75.5 249 Z " /><path fill="rgb(199,193,194)" stroke="rgb(199,193,194)" stroke-width="1" opacity="1" d="M 86.5 249 L 87 251.5 L 86 251.5 L 86.5 249 Z " /><path fill="rgb(199,193,194)" stroke="rgb(199,193,194)" stroke-width="1" opacity="1" d="M 118.5 251 L 117.5 253 L 118.5 251 Z " /></svg>